<?xml version="1.0" encoding="UTF-8"?><svg xmlns="http://www.w3.org/2000/svg" viewBox="0 0 400 400"><defs><style>.cls-1{fill:#ff377b;}.cls-2{fill:#fe4189;}.cls-3{fill:#ff3f85;}.cls-4{fill:#ff3c82;}.cls-5{fill:#ff3a7e;}.cls-6{fill:#986990;}.cls-7{fill:#ff3476;}.cls-8{fill:#ff387c;}.cls-9{fill:#ff3e84;}.cls-10{fill:#fe448d;}.cls-11{fill:#fe438c;}.cls-12{fill:#ff3374;}.cls-12,.cls-13{font-family:Poppins-Black, Poppins;font-size:82.46px;}.cls-14{fill:#ff3d83;}.cls-15{fill:#fe418a;}.cls-13{fill:#fe4d9b;}.cls-16{fill:#fe4893;}.cls-17{fill:#fe4c99;}.cls-18{fill:#fe4c9a;}.cls-19{fill:#ff3a7f;}.cls-20{fill:#fe4996;}.cls-21{fill:#ff3c81;}.cls-22{fill:#ff3678;}.cls-23{fill:#ff4088;}.cls-24{fill:#ff3f86;}.cls-25{fill:#fe4a97;}.cls-26{fill:#fe4691;}.cls-27{fill:#fe4690;}.cls-28{fill:#ff3779;}.cls-29{fill:#ff3475;}.cls-30{fill:#ff3b80;}.cls-31{fill:#ff3577;}.cls-32{fill:#fe4994;}.cls-33{fill:#ff397d;}.cls-34{fill:#fe4792;}.cls-35{fill:#fe4b98;}.cls-36{fill:#fe448e;}.cls-37{fill:#fe428b;}.cls-38{fill:#fe9ac5;}.cls-39{fill:#fe458f;}</style></defs><g id="Layer_2"><rect class="cls-6" width="400" height="400"/></g><g id="Layer_1"><g><text class="cls-12" transform="translate(12.44 237.17) scale(.87 1)"><tspan x="0" y="0">EXTROSIA</tspan></text><g><polygon class="cls-29" points="32.08 192.9 32.08 200.08 47.8 200.08 47.8 213.85 32.08 213.85 32.08 222.09 49.94 222.09 49.94 236.69 16.21 236.69 16.21 178.31 49.94 178.31 49.94 192.9 32.08 192.9"/><polygon class="cls-29" points="88.18 236.69 78.89 221.52 71.17 236.69 53.09 236.69 69.74 206.59 52.37 178.31 71.17 178.31 80.1 192.9 87.53 178.31 105.61 178.31 89.25 207.83 106.97 236.69 88.18 236.69"/><polygon class="cls-29" points="150.27 178.31 150.27 192.82 136.84 192.82 136.84 236.69 120.98 236.69 120.98 192.82 107.68 192.82 107.68 178.31 150.27 178.31"/><path class="cls-29" d="M170.43,203.54h6.29c1.52,0,2.67-.4,3.43-1.2,.76-.8,1.14-2.05,1.14-3.75,0-1.54-.39-2.75-1.18-3.63-.79-.88-1.92-1.32-3.39-1.32h-6.29v9.9Zm9.58,33.15l-9.5-20.94h-.07v20.94h-15.86v-58.38h23.58c4.1,0,7.6,.84,10.5,2.52,2.91,1.68,5.08,3.96,6.54,6.84,1.45,2.89,2.18,6.14,2.18,9.77,0,3.9-.94,7.37-2.82,10.39-1.88,3.02-4.59,5.2-8.11,6.51l11,22.35h-17.44Z"/><path class="cls-29" d="M234.38,216.69c1.72-2.34,2.57-5.48,2.57-9.44s-.86-7.19-2.57-9.52c-1.72-2.34-4.14-3.5-7.29-3.5s-5.65,1.17-7.36,3.5c-1.72,2.34-2.57,5.51-2.57,9.52s.86,7.11,2.57,9.44c1.72,2.34,4.17,3.5,7.36,3.5s5.57-1.17,7.29-3.5Zm-20.4,16.7c-3.98-2.58-7.14-6.16-9.47-10.72-2.33-4.56-3.5-9.7-3.5-15.42s1.17-10.86,3.5-15.42c2.33-4.56,5.49-8.12,9.47-10.68,3.98-2.56,8.35-3.83,13.11-3.83s9.12,1.28,13.08,3.83c3.95,2.56,7.08,6.12,9.4,10.68,2.31,4.56,3.47,9.7,3.47,15.42s-1.16,10.86-3.47,15.42c-2.31,4.56-5.46,8.14-9.43,10.72-3.98,2.59-8.33,3.88-13.04,3.88s-9.14-1.29-13.11-3.88Z"/><path class="cls-29" d="M263.57,232.36c-3.93-3.27-6.06-8.07-6.4-14.39h16.86c.24,3.35,1.52,5.03,3.86,5.03,.86,0,1.58-.23,2.18-.7,.6-.47,.89-1.2,.89-2.18,0-1.37-.64-2.49-1.93-3.34-1.29-.85-3.29-1.83-6-2.93-3.24-1.32-5.92-2.61-8.04-3.88-2.12-1.26-3.94-3.1-5.47-5.52-1.53-2.42-2.24-5.53-2.22-9.32s.85-7.02,2.54-9.69c1.69-2.67,4-4.69,6.93-6.06,2.93-1.37,6.23-2.06,9.9-2.06,6.19,0,11.11,1.65,14.76,4.95,3.64,3.3,5.56,7.94,5.75,13.94h-17.08c-.05-1.65-.41-2.83-1.07-3.55-.67-.71-1.48-1.07-2.43-1.07-.67,0-1.21,.26-1.64,.78-.43,.52-.64,1.25-.64,2.18,0,1.32,.63,2.41,1.89,3.26,1.26,.85,3.27,1.89,6.04,3.09,3.19,1.38,5.82,2.69,7.9,3.96,2.07,1.26,3.87,3.02,5.39,5.28,1.52,2.25,2.29,5.09,2.29,8.49s-.76,6.78-2.29,9.61c-1.53,2.83-3.74,5.04-6.65,6.64-2.91,1.6-6.36,2.39-10.36,2.39-6.05,0-11.04-1.64-14.97-4.91Z"/><rect class="cls-29" x="303.41" y="178.31" width="15.86" height="58.38"/><path class="cls-29" d="M355.01,214.09l-4.57-16.24-4.57,16.24h9.15Zm3.86,13.77h-16.87l-2.5,8.82h-16.65l18.51-58.38h18.29l18.44,58.38h-16.72l-2.5-8.82Z"/></g><g><polygon class="cls-7" points="32.28 192.42 32.28 199.59 48 199.59 48 213.37 32.28 213.37 32.28 221.61 50.14 221.61 50.14 236.21 16.41 236.21 16.41 177.83 50.14 177.83 50.14 192.42 32.28 192.42"/><polygon class="cls-7" points="88.37 236.21 79.08 221.03 71.37 236.21 53.29 236.21 69.94 206.11 52.57 177.83 71.37 177.83 80.3 192.42 87.73 177.83 105.81 177.83 89.45 207.35 107.17 236.21 88.37 236.21"/><polygon class="cls-7" points="150.47 177.83 150.47 192.34 137.04 192.34 137.04 236.21 121.17 236.21 121.17 192.34 107.88 192.34 107.88 177.83 150.47 177.83"/><path class="cls-7" d="M170.63,203.06h6.29c1.52,0,2.67-.4,3.43-1.2,.76-.8,1.14-2.05,1.14-3.75,0-1.54-.39-2.75-1.18-3.63-.79-.88-1.92-1.32-3.39-1.32h-6.29v9.9Zm9.58,33.15l-9.5-20.94h-.07v20.94h-15.86v-58.38h23.58c4.1,0,7.6,.84,10.5,2.52,2.91,1.68,5.08,3.96,6.54,6.84,1.45,2.89,2.18,6.14,2.18,9.77,0,3.9-.94,7.37-2.82,10.39-1.88,3.02-4.59,5.2-8.11,6.51l11,22.35h-17.44Z"/><path class="cls-7" d="M234.58,216.21c1.72-2.34,2.57-5.48,2.57-9.44s-.86-7.19-2.57-9.52c-1.72-2.34-4.14-3.5-7.29-3.5s-5.65,1.17-7.36,3.5c-1.72,2.34-2.57,5.51-2.57,9.52s.86,7.11,2.57,9.44c1.72,2.34,4.17,3.5,7.36,3.5s5.57-1.17,7.29-3.5Zm-20.4,16.7c-3.98-2.58-7.14-6.16-9.47-10.72-2.33-4.56-3.5-9.7-3.5-15.42s1.17-10.86,3.5-15.42c2.33-4.56,5.49-8.12,9.47-10.68,3.98-2.56,8.35-3.83,13.11-3.83s9.12,1.28,13.08,3.83c3.95,2.56,7.08,6.12,9.4,10.68,2.31,4.56,3.47,9.7,3.47,15.42s-1.16,10.86-3.47,15.42c-2.31,4.56-5.46,8.14-9.43,10.72-3.98,2.59-8.33,3.88-13.04,3.88s-9.14-1.29-13.11-3.88Z"/><path class="cls-7" d="M263.77,231.88c-3.93-3.27-6.06-8.07-6.4-14.39h16.86c.24,3.35,1.52,5.03,3.86,5.03,.86,0,1.58-.23,2.18-.7,.6-.47,.89-1.2,.89-2.18,0-1.37-.64-2.49-1.93-3.34-1.29-.85-3.29-1.83-6-2.93-3.24-1.32-5.92-2.61-8.04-3.88-2.12-1.26-3.94-3.1-5.47-5.52-1.53-2.42-2.24-5.53-2.22-9.32s.85-7.02,2.54-9.69c1.69-2.67,4-4.69,6.93-6.06,2.93-1.37,6.23-2.06,9.9-2.06,6.19,0,11.11,1.65,14.76,4.95,3.64,3.3,5.56,7.94,5.75,13.94h-17.08c-.05-1.65-.41-2.83-1.07-3.55-.67-.71-1.48-1.07-2.43-1.07-.67,0-1.21,.26-1.64,.78-.43,.52-.64,1.25-.64,2.18,0,1.32,.63,2.41,1.89,3.26,1.26,.85,3.27,1.89,6.04,3.09,3.19,1.38,5.82,2.69,7.9,3.96,2.07,1.26,3.87,3.02,5.39,5.28,1.52,2.25,2.29,5.09,2.29,8.49s-.76,6.78-2.29,9.61c-1.53,2.83-3.74,5.04-6.65,6.64-2.91,1.6-6.36,2.39-10.36,2.39-6.05,0-11.04-1.64-14.97-4.91Z"/><rect class="cls-7" x="303.61" y="177.83" width="15.86" height="58.38"/><path class="cls-7" d="M355.21,213.61l-4.57-16.24-4.57,16.24h9.15Zm3.86,13.77h-16.87l-2.5,8.82h-16.65l18.51-58.38h18.29l18.44,58.38h-16.72l-2.5-8.82Z"/></g><g><polygon class="cls-31" points="32.48 191.94 32.48 199.11 48.2 199.11 48.2 212.88 32.48 212.88 32.48 221.13 50.34 221.13 50.34 235.73 16.61 235.73 16.61 177.34 50.34 177.34 50.34 191.94 32.48 191.94"/><polygon class="cls-31" points="88.57 235.73 79.28 220.55 71.57 235.73 53.49 235.73 70.14 205.63 52.77 177.34 71.57 177.34 80.5 191.94 87.93 177.34 106.01 177.34 89.65 206.86 107.37 235.73 88.57 235.73"/><polygon class="cls-31" points="150.67 177.34 150.67 191.86 137.24 191.86 137.24 235.73 121.37 235.73 121.37 191.86 108.08 191.86 108.08 177.34 150.67 177.34"/><path class="cls-31" d="M170.82,202.58h6.29c1.52,0,2.67-.4,3.43-1.2,.76-.8,1.14-2.05,1.14-3.75,0-1.54-.39-2.75-1.18-3.63-.79-.88-1.92-1.32-3.39-1.32h-6.29v9.9Zm9.58,33.15l-9.5-20.94h-.07v20.94h-15.86v-58.38h23.58c4.1,0,7.6,.84,10.5,2.52,2.91,1.68,5.08,3.96,6.54,6.84,1.45,2.89,2.18,6.14,2.18,9.77,0,3.9-.94,7.37-2.82,10.39-1.88,3.02-4.59,5.2-8.11,6.51l11,22.35h-17.44Z"/><path class="cls-31" d="M234.78,215.73c1.72-2.34,2.57-5.48,2.57-9.44s-.86-7.19-2.57-9.52c-1.72-2.34-4.14-3.5-7.29-3.5s-5.65,1.17-7.36,3.5c-1.72,2.34-2.57,5.51-2.57,9.52s.86,7.11,2.57,9.44c1.72,2.34,4.17,3.5,7.36,3.5s5.57-1.17,7.29-3.5Zm-20.4,16.7c-3.98-2.58-7.14-6.16-9.47-10.72-2.33-4.56-3.5-9.7-3.5-15.42s1.17-10.86,3.5-15.42c2.33-4.56,5.49-8.12,9.47-10.68,3.98-2.56,8.35-3.83,13.11-3.83s9.12,1.28,13.08,3.83c3.95,2.56,7.08,6.12,9.4,10.68,2.31,4.56,3.47,9.7,3.47,15.42s-1.16,10.86-3.47,15.42c-2.31,4.56-5.46,8.14-9.43,10.72-3.98,2.59-8.33,3.88-13.04,3.88s-9.14-1.29-13.11-3.88Z"/><path class="cls-31" d="M263.97,231.4c-3.93-3.27-6.06-8.07-6.4-14.39h16.86c.24,3.35,1.52,5.03,3.86,5.03,.86,0,1.58-.23,2.18-.7,.6-.47,.89-1.2,.89-2.18,0-1.37-.64-2.49-1.93-3.34-1.29-.85-3.29-1.83-6-2.93-3.24-1.32-5.92-2.61-8.04-3.88-2.12-1.26-3.94-3.1-5.47-5.52-1.53-2.42-2.24-5.53-2.22-9.32s.85-7.02,2.54-9.69c1.69-2.67,4-4.69,6.93-6.06,2.93-1.37,6.23-2.06,9.9-2.06,6.19,0,11.11,1.65,14.76,4.95,3.64,3.3,5.56,7.94,5.75,13.94h-17.08c-.05-1.65-.41-2.83-1.07-3.55-.67-.71-1.48-1.07-2.43-1.07-.67,0-1.21,.26-1.64,.78-.43,.52-.64,1.25-.64,2.18,0,1.32,.63,2.41,1.89,3.26,1.26,.85,3.27,1.89,6.04,3.09,3.19,1.38,5.82,2.69,7.9,3.96,2.07,1.26,3.87,3.02,5.39,5.28,1.52,2.25,2.29,5.09,2.29,8.49s-.76,6.78-2.29,9.61c-1.53,2.83-3.74,5.04-6.65,6.64-2.91,1.6-6.36,2.39-10.36,2.39-6.05,0-11.04-1.64-14.97-4.91Z"/><rect class="cls-31" x="303.81" y="177.34" width="15.86" height="58.38"/><path class="cls-31" d="M355.41,213.13l-4.57-16.24-4.57,16.24h9.15Zm3.86,13.77h-16.87l-2.5,8.82h-16.65l18.51-58.38h18.29l18.44,58.38h-16.72l-2.5-8.82Z"/></g><g><polygon class="cls-22" points="32.68 191.46 32.68 198.63 48.4 198.63 48.4 212.4 32.68 212.4 32.68 220.65 50.54 220.65 50.54 235.24 16.81 235.24 16.81 176.86 50.54 176.86 50.54 191.46 32.68 191.46"/><polygon class="cls-22" points="88.77 235.24 79.48 220.07 71.76 235.24 53.69 235.24 70.34 205.15 52.97 176.86 71.76 176.86 80.7 191.46 88.13 176.86 106.21 176.86 89.84 206.38 107.57 235.24 88.77 235.24"/><polygon class="cls-22" points="150.87 176.86 150.87 191.37 137.44 191.37 137.44 235.24 121.57 235.24 121.57 191.37 108.28 191.37 108.28 176.86 150.87 176.86"/><path class="cls-22" d="M171.02,202.1h6.29c1.52,0,2.67-.4,3.43-1.2,.76-.8,1.14-2.05,1.14-3.75,0-1.54-.39-2.75-1.18-3.63-.79-.88-1.92-1.32-3.39-1.32h-6.29v9.9Zm9.58,33.15l-9.5-20.94h-.07v20.94h-15.86v-58.38h23.58c4.1,0,7.6,.84,10.5,2.52,2.91,1.68,5.08,3.96,6.54,6.84,1.45,2.89,2.18,6.14,2.18,9.77,0,3.9-.94,7.37-2.82,10.39-1.88,3.02-4.59,5.2-8.11,6.51l11,22.35h-17.44Z"/><path class="cls-22" d="M234.98,215.25c1.72-2.34,2.57-5.48,2.57-9.44s-.86-7.19-2.57-9.52c-1.72-2.34-4.14-3.5-7.29-3.5s-5.65,1.17-7.36,3.5c-1.72,2.34-2.57,5.51-2.57,9.52s.86,7.11,2.57,9.44c1.72,2.34,4.17,3.5,7.36,3.5s5.57-1.17,7.29-3.5Zm-20.4,16.7c-3.98-2.58-7.14-6.16-9.47-10.72-2.33-4.56-3.5-9.7-3.5-15.42s1.17-10.86,3.5-15.42c2.33-4.56,5.49-8.12,9.47-10.68,3.98-2.56,8.35-3.83,13.11-3.83s9.12,1.28,13.08,3.83c3.95,2.56,7.08,6.12,9.4,10.68,2.31,4.56,3.47,9.7,3.47,15.42s-1.16,10.86-3.47,15.42c-2.31,4.56-5.46,8.14-9.43,10.72-3.98,2.59-8.33,3.88-13.04,3.88s-9.14-1.29-13.11-3.88Z"/><path class="cls-22" d="M264.17,230.91c-3.93-3.27-6.06-8.07-6.4-14.39h16.86c.24,3.35,1.52,5.03,3.86,5.03,.86,0,1.58-.23,2.18-.7,.6-.47,.89-1.2,.89-2.18,0-1.37-.64-2.49-1.93-3.34-1.29-.85-3.29-1.83-6-2.93-3.24-1.32-5.92-2.61-8.04-3.88-2.12-1.26-3.94-3.1-5.47-5.52-1.53-2.42-2.24-5.53-2.22-9.32,.02-3.79,.85-7.02,2.54-9.69,1.69-2.67,4-4.69,6.93-6.06,2.93-1.37,6.23-2.06,9.9-2.06,6.19,0,11.11,1.65,14.76,4.95,3.64,3.3,5.56,7.94,5.75,13.94h-17.08c-.05-1.65-.41-2.83-1.07-3.55-.67-.71-1.48-1.07-2.43-1.07-.67,0-1.21,.26-1.64,.78-.43,.52-.64,1.25-.64,2.18,0,1.32,.63,2.41,1.89,3.26,1.26,.85,3.27,1.89,6.04,3.09,3.19,1.38,5.82,2.69,7.9,3.96,2.07,1.26,3.87,3.02,5.39,5.28,1.52,2.25,2.29,5.09,2.29,8.49s-.76,6.78-2.29,9.61c-1.53,2.83-3.74,5.04-6.65,6.64-2.91,1.6-6.36,2.39-10.36,2.39-6.05,0-11.04-1.64-14.97-4.91Z"/><rect class="cls-22" x="304.01" y="176.86" width="15.86" height="58.38"/><path class="cls-22" d="M355.6,212.65l-4.57-16.24-4.57,16.24h9.15Zm3.86,13.77h-16.87l-2.5,8.82h-16.65l18.51-58.38h18.29l18.44,58.38h-16.72l-2.5-8.82Z"/></g><g><polygon class="cls-28" points="32.87 190.98 32.87 198.15 48.6 198.15 48.6 211.92 32.87 211.92 32.87 220.17 50.74 220.17 50.74 234.76 17.01 234.76 17.01 176.38 50.74 176.38 50.74 190.98 32.87 190.98"/><polygon class="cls-28" points="88.97 234.76 79.68 219.59 71.96 234.76 53.88 234.76 70.53 204.66 53.17 176.38 71.96 176.38 80.9 190.98 88.33 176.38 106.41 176.38 90.04 205.9 107.77 234.76 88.97 234.76"/><polygon class="cls-28" points="151.07 176.38 151.07 190.89 137.64 190.89 137.64 234.76 121.77 234.76 121.77 190.89 108.48 190.89 108.48 176.38 151.07 176.38"/><path class="cls-28" d="M171.22,201.61h6.29c1.52,0,2.67-.4,3.43-1.2,.76-.8,1.14-2.05,1.14-3.75,0-1.54-.39-2.75-1.18-3.63-.79-.88-1.92-1.32-3.39-1.32h-6.29v9.9Zm9.58,33.15l-9.5-20.94h-.07v20.94h-15.86v-58.38h23.58c4.1,0,7.6,.84,10.5,2.52,2.91,1.68,5.08,3.96,6.54,6.84,1.45,2.89,2.18,6.14,2.18,9.77,0,3.9-.94,7.37-2.82,10.39-1.88,3.02-4.59,5.2-8.11,6.51l11,22.35h-17.44Z"/><path class="cls-28" d="M235.18,214.77c1.72-2.34,2.57-5.48,2.57-9.44s-.86-7.19-2.57-9.52c-1.72-2.34-4.14-3.5-7.29-3.5s-5.65,1.17-7.36,3.5c-1.72,2.34-2.57,5.51-2.57,9.52s.86,7.11,2.57,9.44c1.72,2.34,4.17,3.5,7.36,3.5s5.57-1.17,7.29-3.5Zm-20.4,16.7c-3.98-2.58-7.14-6.16-9.47-10.72-2.33-4.56-3.5-9.7-3.5-15.42s1.17-10.86,3.5-15.42c2.33-4.56,5.49-8.12,9.47-10.68,3.98-2.56,8.35-3.83,13.11-3.83s9.12,1.28,13.08,3.83c3.95,2.56,7.08,6.12,9.4,10.68,2.31,4.56,3.47,9.7,3.47,15.42s-1.16,10.86-3.47,15.42c-2.31,4.56-5.46,8.14-9.43,10.72-3.98,2.59-8.33,3.88-13.04,3.88s-9.14-1.29-13.11-3.88Z"/><path class="cls-28" d="M264.37,230.43c-3.93-3.27-6.06-8.07-6.4-14.39h16.86c.24,3.35,1.52,5.03,3.86,5.03,.86,0,1.58-.23,2.18-.7,.6-.47,.89-1.2,.89-2.18,0-1.37-.64-2.49-1.93-3.34-1.29-.85-3.29-1.83-6-2.93-3.24-1.32-5.92-2.61-8.04-3.88-2.12-1.26-3.94-3.1-5.47-5.52-1.53-2.42-2.24-5.53-2.22-9.32s.85-7.02,2.54-9.69c1.69-2.67,4-4.69,6.93-6.06,2.93-1.37,6.23-2.06,9.9-2.06,6.19,0,11.11,1.65,14.76,4.95,3.64,3.3,5.56,7.94,5.75,13.94h-17.08c-.05-1.65-.41-2.83-1.07-3.55-.67-.71-1.48-1.07-2.43-1.07-.67,0-1.21,.26-1.64,.78-.43,.52-.64,1.25-.64,2.18,0,1.32,.63,2.41,1.89,3.26,1.26,.85,3.27,1.89,6.04,3.09,3.19,1.38,5.82,2.69,7.9,3.96,2.07,1.26,3.87,3.02,5.39,5.28,1.52,2.25,2.29,5.09,2.29,8.49s-.76,6.78-2.29,9.61c-1.53,2.83-3.74,5.04-6.65,6.64-2.91,1.6-6.36,2.39-10.36,2.39-6.05,0-11.04-1.64-14.97-4.91Z"/><rect class="cls-28" x="304.21" y="176.38" width="15.86" height="58.38"/><path class="cls-28" d="M355.8,212.17l-4.57-16.24-4.57,16.24h9.15Zm3.86,13.77h-16.87l-2.5,8.82h-16.65l18.51-58.38h18.29l18.44,58.38h-16.72l-2.5-8.82Z"/></g><g><polygon class="cls-1" points="33.07 190.49 33.07 197.67 48.8 197.67 48.8 211.44 33.07 211.44 33.07 219.69 50.94 219.69 50.94 234.28 17.21 234.28 17.21 175.9 50.94 175.9 50.94 190.49 33.07 190.49"/><polygon class="cls-1" points="89.17 234.28 79.88 219.11 72.16 234.28 54.08 234.28 70.73 204.18 53.37 175.9 72.16 175.9 81.1 190.49 88.53 175.9 106.61 175.9 90.24 205.42 107.96 234.28 89.17 234.28"/><polygon class="cls-1" points="151.27 175.9 151.27 190.41 137.83 190.41 137.83 234.28 121.97 234.28 121.97 190.41 108.68 190.41 108.68 175.9 151.27 175.9"/><path class="cls-1" d="M171.42,201.13h6.29c1.52,0,2.67-.4,3.43-1.2,.76-.8,1.14-2.05,1.14-3.75,0-1.54-.39-2.75-1.18-3.63-.79-.88-1.92-1.32-3.39-1.32h-6.29v9.9Zm9.58,33.15l-9.5-20.94h-.07v20.94h-15.86v-58.38h23.58c4.1,0,7.6,.84,10.5,2.52,2.91,1.68,5.08,3.96,6.54,6.84,1.45,2.89,2.18,6.14,2.18,9.77,0,3.9-.94,7.37-2.82,10.39-1.88,3.02-4.59,5.2-8.11,6.51l11,22.35h-17.44Z"/><path class="cls-1" d="M235.38,214.28c1.72-2.34,2.57-5.48,2.57-9.44s-.86-7.19-2.57-9.52c-1.72-2.34-4.14-3.5-7.29-3.5s-5.65,1.17-7.36,3.5c-1.72,2.34-2.57,5.51-2.57,9.52s.86,7.11,2.57,9.44c1.72,2.34,4.17,3.5,7.36,3.5s5.57-1.17,7.29-3.5Zm-20.4,16.7c-3.98-2.58-7.14-6.16-9.47-10.72-2.33-4.56-3.5-9.7-3.5-15.42s1.17-10.86,3.5-15.42c2.33-4.56,5.49-8.12,9.47-10.68,3.98-2.56,8.35-3.83,13.11-3.83s9.12,1.28,13.08,3.83c3.95,2.56,7.08,6.12,9.4,10.68,2.31,4.56,3.47,9.7,3.47,15.42s-1.16,10.86-3.47,15.42c-2.31,4.56-5.46,8.14-9.43,10.72-3.98,2.59-8.33,3.88-13.04,3.88s-9.14-1.29-13.11-3.88Z"/><path class="cls-1" d="M264.57,229.95c-3.93-3.27-6.06-8.07-6.4-14.39h16.86c.24,3.35,1.52,5.03,3.86,5.03,.86,0,1.58-.23,2.18-.7,.6-.47,.89-1.2,.89-2.18,0-1.37-.64-2.49-1.93-3.34-1.29-.85-3.29-1.83-6-2.93-3.24-1.32-5.92-2.61-8.04-3.88-2.12-1.26-3.94-3.1-5.47-5.52-1.53-2.42-2.24-5.53-2.22-9.32s.85-7.02,2.54-9.69c1.69-2.67,4-4.69,6.93-6.06,2.93-1.37,6.23-2.06,9.9-2.06,6.19,0,11.11,1.65,14.76,4.95,3.64,3.3,5.56,7.94,5.75,13.94h-17.08c-.05-1.65-.41-2.83-1.07-3.55-.67-.71-1.48-1.07-2.43-1.07-.67,0-1.21,.26-1.64,.78-.43,.52-.64,1.25-.64,2.18,0,1.32,.63,2.41,1.89,3.26,1.26,.85,3.27,1.89,6.04,3.09,3.19,1.38,5.82,2.69,7.9,3.96,2.07,1.26,3.87,3.02,5.39,5.28,1.52,2.25,2.29,5.09,2.29,8.49s-.76,6.78-2.29,9.61c-1.53,2.83-3.74,5.04-6.65,6.64-2.91,1.6-6.36,2.39-10.36,2.39-6.05,0-11.04-1.64-14.97-4.91Z"/><rect class="cls-1" x="304.41" y="175.9" width="15.86" height="58.38"/><path class="cls-1" d="M356,211.69l-4.57-16.24-4.57,16.24h9.15Zm3.86,13.77h-16.87l-2.5,8.82h-16.65l18.51-58.38h18.29l18.44,58.38h-16.72l-2.5-8.82Z"/></g><g><polygon class="cls-8" points="33.27 190.01 33.27 197.19 48.99 197.19 48.99 210.96 33.27 210.96 33.27 219.2 51.14 219.2 51.14 233.8 17.41 233.8 17.41 175.42 51.14 175.42 51.14 190.01 33.27 190.01"/><polygon class="cls-8" points="89.37 233.8 80.08 218.63 72.36 233.8 54.28 233.8 70.93 203.7 53.57 175.42 72.36 175.42 81.29 190.01 88.73 175.42 106.81 175.42 90.44 204.94 108.16 233.8 89.37 233.8"/><polygon class="cls-8" points="151.47 175.42 151.47 189.93 138.03 189.93 138.03 233.8 122.17 233.8 122.17 189.93 108.88 189.93 108.88 175.42 151.47 175.42"/><path class="cls-8" d="M171.62,200.65h6.29c1.52,0,2.67-.4,3.43-1.2,.76-.8,1.14-2.05,1.14-3.75,0-1.54-.39-2.75-1.18-3.63-.79-.88-1.92-1.32-3.39-1.32h-6.29v9.9Zm9.58,33.15l-9.5-20.94h-.07v20.94h-15.86v-58.38h23.58c4.1,0,7.6,.84,10.5,2.52,2.91,1.68,5.08,3.96,6.54,6.84,1.45,2.89,2.18,6.14,2.18,9.77,0,3.9-.94,7.37-2.82,10.39-1.88,3.02-4.59,5.2-8.11,6.51l11,22.35h-17.44Z"/><path class="cls-8" d="M235.58,213.8c1.72-2.34,2.57-5.48,2.57-9.44s-.86-7.19-2.57-9.52c-1.72-2.34-4.14-3.5-7.29-3.5s-5.65,1.17-7.36,3.5c-1.72,2.34-2.57,5.51-2.57,9.52s.86,7.11,2.57,9.44c1.72,2.34,4.17,3.5,7.36,3.5s5.57-1.17,7.29-3.5Zm-20.4,16.7c-3.98-2.58-7.14-6.16-9.47-10.72-2.33-4.56-3.5-9.7-3.5-15.42s1.17-10.86,3.5-15.42c2.33-4.56,5.49-8.12,9.47-10.68,3.98-2.56,8.35-3.83,13.11-3.83s9.12,1.28,13.08,3.83c3.95,2.56,7.08,6.12,9.4,10.68,2.31,4.56,3.47,9.7,3.47,15.42s-1.16,10.86-3.47,15.42c-2.31,4.56-5.46,8.14-9.43,10.72-3.98,2.59-8.33,3.88-13.04,3.88s-9.14-1.29-13.11-3.88Z"/><path class="cls-8" d="M264.77,229.47c-3.93-3.27-6.06-8.07-6.4-14.39h16.86c.24,3.35,1.52,5.03,3.86,5.03,.86,0,1.58-.23,2.18-.7,.6-.47,.89-1.2,.89-2.18,0-1.37-.64-2.49-1.93-3.34-1.29-.85-3.29-1.83-6-2.93-3.24-1.32-5.92-2.61-8.04-3.88-2.12-1.26-3.94-3.1-5.47-5.52-1.53-2.42-2.24-5.53-2.22-9.32s.85-7.02,2.54-9.69c1.69-2.67,4-4.69,6.93-6.06,2.93-1.37,6.23-2.06,9.9-2.06,6.19,0,11.11,1.65,14.76,4.95,3.64,3.3,5.56,7.94,5.75,13.94h-17.08c-.05-1.65-.41-2.83-1.07-3.55-.67-.71-1.48-1.07-2.43-1.07-.67,0-1.21,.26-1.64,.78-.43,.52-.64,1.25-.64,2.18,0,1.32,.63,2.41,1.89,3.26,1.26,.85,3.27,1.89,6.04,3.09,3.19,1.38,5.82,2.69,7.9,3.96,2.07,1.26,3.87,3.02,5.39,5.28,1.52,2.25,2.29,5.09,2.29,8.49s-.76,6.78-2.29,9.61c-1.53,2.83-3.74,5.04-6.65,6.64-2.91,1.6-6.36,2.39-10.36,2.39-6.05,0-11.04-1.64-14.97-4.91Z"/><rect class="cls-8" x="304.61" y="175.42" width="15.86" height="58.38"/><path class="cls-8" d="M356.2,211.2l-4.57-16.24-4.57,16.24h9.15Zm3.86,13.77h-16.87l-2.5,8.82h-16.65l18.51-58.38h18.29l18.44,58.38h-16.72l-2.5-8.82Z"/></g><g><polygon class="cls-33" points="33.47 189.53 33.47 196.71 49.19 196.71 49.19 210.48 33.47 210.48 33.47 218.72 51.34 218.72 51.34 233.32 17.61 233.32 17.61 174.94 51.34 174.94 51.34 189.53 33.47 189.53"/><polygon class="cls-33" points="89.57 233.32 80.28 218.14 72.56 233.32 54.48 233.32 71.13 203.22 53.77 174.94 72.56 174.94 81.49 189.53 88.92 174.94 107 174.94 90.64 204.46 108.36 233.32 89.57 233.32"/><polygon class="cls-33" points="151.67 174.94 151.67 189.45 138.23 189.45 138.23 233.32 122.37 233.32 122.37 189.45 109.08 189.45 109.08 174.94 151.67 174.94"/><path class="cls-33" d="M171.82,200.17h6.29c1.52,0,2.67-.4,3.43-1.2,.76-.8,1.14-2.05,1.14-3.75,0-1.54-.39-2.75-1.18-3.63-.79-.88-1.92-1.32-3.39-1.32h-6.29v9.9Zm9.58,33.15l-9.5-20.94h-.07v20.94h-15.86v-58.38h23.58c4.1,0,7.6,.84,10.5,2.52,2.91,1.68,5.08,3.96,6.54,6.84,1.45,2.89,2.18,6.14,2.18,9.77,0,3.9-.94,7.37-2.82,10.39-1.88,3.02-4.59,5.2-8.11,6.51l11,22.35h-17.44Z"/><path class="cls-33" d="M235.78,213.32c1.72-2.34,2.57-5.48,2.57-9.44s-.86-7.19-2.57-9.52c-1.72-2.34-4.14-3.5-7.29-3.5s-5.65,1.17-7.36,3.5c-1.72,2.34-2.57,5.51-2.57,9.52s.86,7.11,2.57,9.44c1.72,2.34,4.17,3.5,7.36,3.5s5.57-1.17,7.29-3.5Zm-20.4,16.7c-3.98-2.58-7.14-6.16-9.47-10.72-2.33-4.56-3.5-9.7-3.5-15.42s1.17-10.86,3.5-15.42c2.33-4.56,5.49-8.12,9.47-10.68,3.98-2.56,8.35-3.83,13.11-3.83s9.12,1.28,13.08,3.83c3.95,2.56,7.08,6.12,9.4,10.68,2.31,4.56,3.47,9.7,3.47,15.42s-1.16,10.86-3.47,15.42c-2.31,4.56-5.46,8.14-9.43,10.72-3.98,2.59-8.33,3.88-13.04,3.88s-9.14-1.29-13.11-3.88Z"/><path class="cls-33" d="M264.97,228.99c-3.93-3.27-6.06-8.07-6.4-14.39h16.86c.24,3.35,1.52,5.03,3.86,5.03,.86,0,1.58-.23,2.18-.7,.6-.47,.89-1.2,.89-2.18,0-1.37-.64-2.49-1.93-3.34-1.29-.85-3.29-1.83-6-2.93-3.24-1.32-5.92-2.61-8.04-3.88-2.12-1.26-3.94-3.1-5.47-5.52-1.53-2.42-2.24-5.53-2.22-9.32s.85-7.02,2.54-9.69c1.69-2.67,4-4.69,6.93-6.06,2.93-1.37,6.23-2.06,9.9-2.06,6.19,0,11.11,1.65,14.76,4.95,3.64,3.3,5.56,7.94,5.75,13.94h-17.08c-.05-1.65-.41-2.83-1.07-3.55-.67-.71-1.48-1.07-2.43-1.07-.67,0-1.21,.26-1.64,.78-.43,.52-.64,1.25-.64,2.18,0,1.32,.63,2.41,1.89,3.26,1.26,.85,3.27,1.89,6.04,3.09,3.19,1.38,5.82,2.69,7.9,3.96,2.07,1.26,3.87,3.02,5.39,5.28,1.52,2.25,2.29,5.09,2.29,8.49s-.76,6.78-2.29,9.61c-1.53,2.83-3.74,5.04-6.65,6.64-2.91,1.6-6.36,2.39-10.36,2.39-6.05,0-11.04-1.64-14.97-4.91Z"/><rect class="cls-33" x="304.81" y="174.94" width="15.86" height="58.38"/><path class="cls-33" d="M356.4,210.72l-4.57-16.24-4.57,16.24h9.15Zm3.86,13.77h-16.87l-2.5,8.82h-16.65l18.51-58.38h18.29l18.44,58.38h-16.72l-2.5-8.82Z"/></g><g><polygon class="cls-5" points="33.67 189.05 33.67 196.22 49.39 196.22 49.39 209.99 33.67 209.99 33.67 218.24 51.54 218.24 51.54 232.84 17.81 232.84 17.81 174.45 51.54 174.45 51.54 189.05 33.67 189.05"/><polygon class="cls-5" points="89.77 232.84 80.48 217.66 72.76 232.84 54.68 232.84 71.33 202.74 53.97 174.45 72.76 174.45 81.69 189.05 89.12 174.45 107.2 174.45 90.84 203.97 108.56 232.84 89.77 232.84"/><polygon class="cls-5" points="151.87 174.45 151.87 188.97 138.43 188.97 138.43 232.84 122.57 232.84 122.57 188.97 109.28 188.97 109.28 174.45 151.87 174.45"/><path class="cls-5" d="M172.02,199.69h6.29c1.52,0,2.67-.4,3.43-1.2,.76-.8,1.14-2.05,1.14-3.75,0-1.54-.39-2.75-1.18-3.63-.79-.88-1.92-1.32-3.39-1.32h-6.29v9.9Zm9.58,33.15l-9.5-20.94h-.07v20.94h-15.86v-58.38h23.58c4.1,0,7.6,.84,10.5,2.52,2.91,1.68,5.08,3.96,6.54,6.84,1.45,2.89,2.18,6.14,2.18,9.77,0,3.9-.94,7.37-2.82,10.39-1.88,3.02-4.59,5.2-8.11,6.51l11,22.35h-17.44Z"/><path class="cls-5" d="M235.98,212.84c1.72-2.34,2.57-5.48,2.57-9.44s-.86-7.19-2.57-9.52c-1.72-2.34-4.14-3.5-7.29-3.5s-5.65,1.17-7.36,3.5c-1.72,2.34-2.57,5.51-2.57,9.52s.86,7.11,2.57,9.44c1.72,2.34,4.17,3.5,7.36,3.5s5.57-1.17,7.29-3.5Zm-20.4,16.7c-3.98-2.58-7.14-6.16-9.47-10.72-2.33-4.56-3.5-9.7-3.5-15.42s1.17-10.86,3.5-15.42c2.33-4.56,5.49-8.12,9.47-10.68,3.98-2.56,8.35-3.83,13.11-3.83s9.12,1.28,13.08,3.83c3.95,2.56,7.08,6.12,9.4,10.68,2.31,4.56,3.47,9.7,3.47,15.42s-1.16,10.86-3.47,15.42c-2.31,4.56-5.46,8.14-9.43,10.72-3.98,2.59-8.33,3.88-13.04,3.88s-9.14-1.29-13.11-3.88Z"/><path class="cls-5" d="M265.17,228.51c-3.93-3.27-6.06-8.07-6.4-14.39h16.86c.24,3.35,1.52,5.03,3.86,5.03,.86,0,1.58-.23,2.18-.7,.6-.47,.89-1.2,.89-2.18,0-1.37-.64-2.49-1.93-3.34-1.29-.85-3.29-1.83-6-2.93-3.24-1.32-5.92-2.61-8.04-3.88-2.12-1.26-3.94-3.1-5.47-5.52-1.53-2.42-2.24-5.53-2.22-9.32,.02-3.79,.85-7.02,2.54-9.69,1.69-2.67,4-4.69,6.93-6.06,2.93-1.37,6.23-2.06,9.9-2.06,6.19,0,11.11,1.65,14.76,4.95,3.64,3.3,5.56,7.94,5.75,13.94h-17.08c-.05-1.65-.41-2.83-1.07-3.55-.67-.71-1.48-1.07-2.43-1.07-.67,0-1.21,.26-1.64,.78-.43,.52-.64,1.25-.64,2.18,0,1.32,.63,2.41,1.89,3.26,1.26,.85,3.27,1.89,6.04,3.09,3.19,1.38,5.82,2.69,7.9,3.96,2.07,1.26,3.87,3.02,5.39,5.28,1.52,2.25,2.29,5.09,2.29,8.49s-.76,6.78-2.29,9.61c-1.53,2.83-3.74,5.04-6.65,6.64-2.91,1.6-6.36,2.39-10.36,2.39-6.05,0-11.04-1.64-14.97-4.91Z"/><rect class="cls-5" x="305.01" y="174.45" width="15.86" height="58.38"/><path class="cls-5" d="M356.6,210.24l-4.57-16.24-4.57,16.24h9.15Zm3.86,13.77h-16.87l-2.5,8.82h-16.65l18.51-58.38h18.29l18.44,58.38h-16.72l-2.5-8.82Z"/></g><g><polygon class="cls-19" points="33.87 188.57 33.87 195.74 49.59 195.74 49.59 209.51 33.87 209.51 33.87 217.76 51.73 217.76 51.73 232.35 18.01 232.35 18.01 173.97 51.73 173.97 51.73 188.57 33.87 188.57"/><polygon class="cls-19" points="89.97 232.35 80.68 217.18 72.96 232.35 54.88 232.35 71.53 202.26 54.16 173.97 72.96 173.97 81.89 188.57 89.32 173.97 107.4 173.97 91.04 203.49 108.76 232.35 89.97 232.35"/><polygon class="cls-19" points="152.07 173.97 152.07 188.49 138.63 188.49 138.63 232.35 122.77 232.35 122.77 188.49 109.47 188.49 109.47 173.97 152.07 173.97"/><path class="cls-19" d="M172.22,199.21h6.29c1.52,0,2.67-.4,3.43-1.2,.76-.8,1.14-2.05,1.14-3.75,0-1.54-.39-2.75-1.18-3.63-.79-.88-1.92-1.32-3.39-1.32h-6.29v9.9Zm9.58,33.15l-9.5-20.94h-.07v20.94h-15.86v-58.38h23.58c4.1,0,7.6,.84,10.5,2.52,2.91,1.68,5.08,3.96,6.54,6.84,1.45,2.89,2.18,6.14,2.18,9.77,0,3.9-.94,7.37-2.82,10.39-1.88,3.02-4.59,5.2-8.11,6.51l11,22.35h-17.44Z"/><path class="cls-19" d="M236.17,212.36c1.72-2.34,2.57-5.48,2.57-9.44s-.86-7.19-2.57-9.52c-1.72-2.34-4.14-3.5-7.29-3.5s-5.65,1.17-7.36,3.5c-1.72,2.34-2.57,5.51-2.57,9.52s.86,7.11,2.57,9.44c1.72,2.34,4.17,3.5,7.36,3.5s5.57-1.17,7.29-3.5Zm-20.4,16.7c-3.98-2.58-7.14-6.16-9.47-10.72-2.33-4.56-3.5-9.7-3.5-15.42s1.17-10.86,3.5-15.42c2.33-4.56,5.49-8.12,9.47-10.68,3.98-2.56,8.35-3.83,13.11-3.83s9.12,1.28,13.08,3.83c3.95,2.56,7.08,6.12,9.4,10.68,2.31,4.56,3.47,9.7,3.47,15.42s-1.16,10.86-3.47,15.42c-2.31,4.56-5.46,8.14-9.43,10.72-3.98,2.59-8.33,3.88-13.04,3.88s-9.14-1.29-13.11-3.88Z"/><path class="cls-19" d="M265.37,228.02c-3.93-3.27-6.06-8.07-6.4-14.39h16.86c.24,3.35,1.52,5.03,3.86,5.03,.86,0,1.58-.23,2.18-.7,.6-.47,.89-1.2,.89-2.18,0-1.37-.64-2.49-1.93-3.34-1.29-.85-3.29-1.83-6-2.93-3.24-1.32-5.92-2.61-8.04-3.88-2.12-1.26-3.94-3.1-5.47-5.52-1.53-2.42-2.24-5.53-2.22-9.32s.85-7.02,2.54-9.69c1.69-2.67,4-4.69,6.93-6.06,2.93-1.37,6.23-2.06,9.9-2.06,6.19,0,11.11,1.65,14.76,4.95,3.64,3.3,5.56,7.94,5.75,13.94h-17.08c-.05-1.65-.41-2.83-1.07-3.55-.67-.71-1.48-1.07-2.43-1.07-.67,0-1.21,.26-1.64,.78-.43,.52-.64,1.25-.64,2.18,0,1.32,.63,2.41,1.89,3.26,1.26,.85,3.27,1.89,6.04,3.09,3.19,1.38,5.82,2.69,7.9,3.96,2.07,1.26,3.87,3.02,5.39,5.28,1.52,2.25,2.29,5.09,2.29,8.49s-.76,6.78-2.29,9.61c-1.53,2.83-3.74,5.04-6.65,6.64-2.91,1.6-6.36,2.39-10.36,2.39-6.05,0-11.04-1.64-14.97-4.91Z"/><rect class="cls-19" x="305.2" y="173.97" width="15.86" height="58.38"/><path class="cls-19" d="M356.8,209.76l-4.57-16.24-4.57,16.24h9.15Zm3.86,13.77h-16.87l-2.5,8.82h-16.65l18.51-58.38h18.29l18.44,58.38h-16.72l-2.5-8.82Z"/></g><g><polygon class="cls-30" points="34.07 188.09 34.07 195.26 49.79 195.26 49.79 209.03 34.07 209.03 34.07 217.28 51.93 217.28 51.93 231.87 18.2 231.87 18.2 173.49 51.93 173.49 51.93 188.09 34.07 188.09"/><polygon class="cls-30" points="90.16 231.87 80.87 216.7 73.16 231.87 55.08 231.87 71.73 201.77 54.36 173.49 73.16 173.49 82.09 188.09 89.52 173.49 107.6 173.49 91.24 203.01 108.96 231.87 90.16 231.87"/><polygon class="cls-30" points="152.26 173.49 152.26 188 138.83 188 138.83 231.87 122.96 231.87 122.96 188 109.67 188 109.67 173.49 152.26 173.49"/><path class="cls-30" d="M172.42,198.72h6.29c1.52,0,2.67-.4,3.43-1.2,.76-.8,1.14-2.05,1.14-3.75,0-1.54-.39-2.75-1.18-3.63-.79-.88-1.92-1.32-3.39-1.32h-6.29v9.9Zm9.58,33.15l-9.5-20.95h-.07v20.95h-15.86v-58.38h23.58c4.1,0,7.6,.84,10.5,2.52,2.91,1.68,5.08,3.96,6.54,6.84,1.45,2.89,2.18,6.14,2.18,9.77,0,3.9-.94,7.37-2.82,10.39-1.88,3.02-4.59,5.2-8.11,6.51l11,22.35h-17.44Z"/><path class="cls-30" d="M236.37,211.88c1.72-2.34,2.57-5.48,2.57-9.44s-.86-7.19-2.57-9.52c-1.72-2.34-4.14-3.5-7.29-3.5s-5.65,1.17-7.36,3.5c-1.72,2.34-2.57,5.51-2.57,9.52s.86,7.11,2.57,9.44c1.72,2.34,4.17,3.5,7.36,3.5s5.57-1.17,7.29-3.5Zm-20.4,16.7c-3.98-2.58-7.14-6.16-9.47-10.72-2.33-4.56-3.5-9.7-3.5-15.42s1.17-10.86,3.5-15.42c2.33-4.56,5.49-8.12,9.47-10.68,3.98-2.56,8.35-3.83,13.11-3.83s9.12,1.28,13.08,3.83c3.95,2.56,7.08,6.12,9.4,10.68,2.31,4.56,3.47,9.7,3.47,15.42s-1.16,10.86-3.47,15.42c-2.31,4.56-5.46,8.14-9.43,10.72-3.98,2.59-8.33,3.88-13.04,3.88s-9.14-1.29-13.11-3.88Z"/><path class="cls-30" d="M265.56,227.54c-3.93-3.27-6.06-8.07-6.4-14.39h16.86c.24,3.35,1.52,5.03,3.86,5.03,.86,0,1.58-.23,2.18-.7,.6-.47,.89-1.2,.89-2.18,0-1.37-.64-2.49-1.93-3.34-1.29-.85-3.29-1.83-6-2.93-3.24-1.32-5.92-2.61-8.04-3.88-2.12-1.26-3.94-3.1-5.47-5.52-1.53-2.42-2.24-5.53-2.22-9.32s.85-7.02,2.54-9.69c1.69-2.67,4-4.69,6.93-6.06,2.93-1.37,6.23-2.06,9.9-2.06,6.19,0,11.11,1.65,14.76,4.95,3.64,3.3,5.56,7.94,5.75,13.94h-17.08c-.05-1.65-.41-2.83-1.07-3.55-.67-.71-1.48-1.07-2.43-1.07-.67,0-1.21,.26-1.64,.78-.43,.52-.64,1.25-.64,2.18,0,1.32,.63,2.41,1.89,3.26,1.26,.85,3.27,1.89,6.04,3.09,3.19,1.38,5.82,2.69,7.9,3.96,2.07,1.26,3.87,3.02,5.39,5.28,1.52,2.25,2.29,5.09,2.29,8.49s-.76,6.78-2.29,9.61c-1.53,2.83-3.74,5.04-6.65,6.64-2.91,1.6-6.36,2.39-10.36,2.39-6.05,0-11.04-1.64-14.97-4.91Z"/><rect class="cls-30" x="305.4" y="173.49" width="15.86" height="58.38"/><path class="cls-30" d="M357,209.28l-4.57-16.24-4.57,16.24h9.15Zm3.86,13.77h-16.87l-2.5,8.82h-16.65l18.51-58.38h18.29l18.44,58.38h-16.72l-2.5-8.82Z"/></g><g><polygon class="cls-21" points="34.27 187.6 34.27 194.78 49.99 194.78 49.99 208.55 34.27 208.55 34.27 216.8 52.13 216.8 52.13 231.39 18.4 231.39 18.4 173.01 52.13 173.01 52.13 187.6 34.27 187.6"/><polygon class="cls-21" points="90.36 231.39 81.07 216.22 73.36 231.39 55.28 231.39 71.93 201.29 54.56 173.01 73.36 173.01 82.29 187.6 89.72 173.01 107.8 173.01 91.44 202.53 109.16 231.39 90.36 231.39"/><polygon class="cls-21" points="152.46 173.01 152.46 187.52 139.03 187.52 139.03 231.39 123.16 231.39 123.16 187.52 109.87 187.52 109.87 173.01 152.46 173.01"/><path class="cls-21" d="M172.61,198.24h6.29c1.52,0,2.67-.4,3.43-1.2,.76-.8,1.14-2.05,1.14-3.75,0-1.54-.39-2.75-1.18-3.63-.79-.88-1.92-1.32-3.39-1.32h-6.29v9.9Zm9.58,33.15l-9.5-20.95h-.07v20.95h-15.86v-58.38h23.58c4.1,0,7.6,.84,10.5,2.52,2.91,1.68,5.08,3.96,6.54,6.84,1.45,2.89,2.18,6.14,2.18,9.77,0,3.9-.94,7.37-2.82,10.39-1.88,3.02-4.59,5.2-8.11,6.51l11,22.35h-17.44Z"/><path class="cls-21" d="M236.57,211.39c1.72-2.34,2.57-5.48,2.57-9.44s-.86-7.19-2.57-9.52c-1.72-2.34-4.14-3.5-7.29-3.5s-5.65,1.17-7.36,3.5c-1.72,2.34-2.57,5.51-2.57,9.52s.86,7.11,2.57,9.44c1.72,2.34,4.17,3.5,7.36,3.5s5.57-1.17,7.29-3.5Zm-20.4,16.7c-3.98-2.58-7.14-6.16-9.47-10.72-2.33-4.56-3.5-9.7-3.5-15.42s1.17-10.86,3.5-15.42c2.33-4.56,5.49-8.12,9.47-10.68,3.98-2.56,8.35-3.83,13.11-3.83s9.12,1.28,13.08,3.83c3.95,2.56,7.08,6.12,9.4,10.68,2.31,4.56,3.47,9.7,3.47,15.42s-1.16,10.86-3.47,15.42c-2.31,4.56-5.46,8.14-9.43,10.72-3.98,2.59-8.33,3.88-13.04,3.88s-9.14-1.29-13.11-3.88Z"/><path class="cls-21" d="M265.76,227.06c-3.93-3.27-6.06-8.07-6.4-14.39h16.86c.24,3.35,1.52,5.03,3.86,5.03,.86,0,1.58-.23,2.18-.7,.6-.47,.89-1.2,.89-2.18,0-1.37-.64-2.49-1.93-3.34-1.29-.85-3.29-1.83-6-2.93-3.24-1.32-5.92-2.61-8.04-3.88-2.12-1.26-3.94-3.1-5.47-5.52-1.53-2.42-2.24-5.53-2.22-9.32s.85-7.02,2.54-9.69c1.69-2.67,4-4.69,6.93-6.06,2.93-1.37,6.23-2.06,9.9-2.06,6.19,0,11.11,1.65,14.76,4.95,3.64,3.3,5.56,7.94,5.75,13.94h-17.08c-.05-1.65-.41-2.83-1.07-3.55-.67-.71-1.48-1.07-2.43-1.07-.67,0-1.21,.26-1.64,.78-.43,.52-.64,1.25-.64,2.18,0,1.32,.63,2.41,1.89,3.26,1.26,.85,3.27,1.89,6.04,3.09,3.19,1.38,5.82,2.69,7.9,3.96,2.07,1.26,3.87,3.02,5.39,5.28,1.52,2.25,2.29,5.09,2.29,8.49s-.76,6.78-2.29,9.61c-1.53,2.83-3.74,5.04-6.65,6.64-2.91,1.6-6.36,2.39-10.36,2.39-6.05,0-11.04-1.64-14.97-4.91Z"/><rect class="cls-21" x="305.6" y="173.01" width="15.86" height="58.38"/><path class="cls-21" d="M357.2,208.8l-4.57-16.24-4.57,16.24h9.15Zm3.86,13.77h-16.87l-2.5,8.82h-16.65l18.51-58.38h18.29l18.44,58.38h-16.72l-2.5-8.82Z"/></g><g><polygon class="cls-4" points="34.47 187.12 34.47 194.3 50.19 194.3 50.19 208.07 34.47 208.07 34.47 216.31 52.33 216.31 52.33 230.91 18.6 230.91 18.6 172.53 52.33 172.53 52.33 187.12 34.47 187.12"/><polygon class="cls-4" points="90.56 230.91 81.27 215.74 73.56 230.91 55.48 230.91 72.13 200.81 54.76 172.53 73.56 172.53 82.49 187.12 89.92 172.53 108 172.53 91.63 202.05 109.36 230.91 90.56 230.91"/><polygon class="cls-4" points="152.66 172.53 152.66 187.04 139.23 187.04 139.23 230.91 123.36 230.91 123.36 187.04 110.07 187.04 110.07 172.53 152.66 172.53"/><path class="cls-4" d="M172.81,197.76h6.29c1.52,0,2.67-.4,3.43-1.2,.76-.8,1.14-2.05,1.14-3.75,0-1.54-.39-2.75-1.18-3.63-.79-.88-1.92-1.32-3.39-1.32h-6.29v9.9Zm9.58,33.15l-9.5-20.95h-.07v20.95h-15.86v-58.38h23.58c4.1,0,7.6,.84,10.5,2.52,2.91,1.68,5.08,3.96,6.54,6.84,1.45,2.89,2.18,6.14,2.18,9.77,0,3.9-.94,7.37-2.82,10.39-1.88,3.02-4.59,5.2-8.11,6.51l11,22.35h-17.44Z"/><path class="cls-4" d="M236.77,210.91c1.72-2.34,2.57-5.48,2.57-9.44s-.86-7.19-2.57-9.52c-1.72-2.34-4.14-3.5-7.29-3.5s-5.65,1.17-7.36,3.5c-1.72,2.34-2.57,5.51-2.57,9.52s.86,7.11,2.57,9.44c1.72,2.34,4.17,3.5,7.36,3.5s5.57-1.17,7.29-3.5Zm-20.4,16.7c-3.98-2.58-7.14-6.16-9.47-10.72-2.33-4.56-3.5-9.7-3.5-15.42s1.17-10.86,3.5-15.42c2.33-4.56,5.49-8.12,9.47-10.68,3.98-2.56,8.35-3.83,13.11-3.83s9.12,1.28,13.08,3.83c3.95,2.56,7.08,6.12,9.4,10.68,2.31,4.56,3.47,9.7,3.47,15.42s-1.16,10.86-3.47,15.42c-2.31,4.56-5.46,8.14-9.43,10.72-3.98,2.59-8.33,3.88-13.04,3.88s-9.14-1.29-13.11-3.88Z"/><path class="cls-4" d="M265.96,226.58c-3.93-3.27-6.06-8.07-6.4-14.39h16.86c.24,3.35,1.52,5.03,3.86,5.03,.86,0,1.58-.23,2.18-.7,.6-.47,.89-1.2,.89-2.18,0-1.37-.64-2.49-1.93-3.34-1.29-.85-3.29-1.83-6-2.93-3.24-1.32-5.92-2.61-8.04-3.88-2.12-1.26-3.94-3.1-5.47-5.52-1.53-2.42-2.24-5.53-2.22-9.32s.85-7.02,2.54-9.69c1.69-2.67,4-4.69,6.93-6.06,2.93-1.37,6.23-2.06,9.9-2.06,6.19,0,11.11,1.65,14.76,4.95,3.64,3.3,5.56,7.94,5.75,13.94h-17.08c-.05-1.65-.41-2.83-1.07-3.55-.67-.71-1.48-1.07-2.43-1.07-.67,0-1.21,.26-1.64,.78-.43,.52-.64,1.25-.64,2.18,0,1.32,.63,2.41,1.89,3.26,1.26,.85,3.27,1.89,6.04,3.09,3.19,1.38,5.82,2.69,7.9,3.96,2.07,1.27,3.87,3.02,5.39,5.28,1.52,2.25,2.29,5.09,2.29,8.49s-.76,6.78-2.29,9.61c-1.53,2.83-3.74,5.04-6.65,6.64-2.91,1.6-6.36,2.39-10.36,2.39-6.05,0-11.04-1.64-14.97-4.91Z"/><rect class="cls-4" x="305.8" y="172.53" width="15.86" height="58.38"/><path class="cls-4" d="M357.39,208.31l-4.57-16.24-4.57,16.24h9.15Zm3.86,13.77h-16.87l-2.5,8.82h-16.65l18.51-58.38h18.29l18.44,58.38h-16.72l-2.5-8.82Z"/></g><g><polygon class="cls-14" points="34.66 186.64 34.66 193.82 50.39 193.82 50.39 207.59 34.66 207.59 34.66 215.83 52.53 215.83 52.53 230.43 18.8 230.43 18.8 172.05 52.53 172.05 52.53 186.64 34.66 186.64"/><polygon class="cls-14" points="90.76 230.43 81.47 215.25 73.75 230.43 55.67 230.43 72.32 200.33 54.96 172.05 73.75 172.05 82.69 186.64 90.12 172.05 108.2 172.05 91.83 201.57 109.56 230.43 90.76 230.43"/><polygon class="cls-14" points="152.86 172.05 152.86 186.56 139.43 186.56 139.43 230.43 123.56 230.43 123.56 186.56 110.27 186.56 110.27 172.05 152.86 172.05"/><path class="cls-14" d="M173.01,197.28h6.29c1.52,0,2.67-.4,3.43-1.2,.76-.8,1.14-2.05,1.14-3.75,0-1.54-.39-2.75-1.18-3.63-.79-.88-1.92-1.32-3.39-1.32h-6.29v9.9Zm9.58,33.15l-9.5-20.95h-.07v20.95h-15.86v-58.38h23.58c4.1,0,7.6,.84,10.5,2.52,2.91,1.68,5.08,3.96,6.54,6.84,1.45,2.89,2.18,6.14,2.18,9.77,0,3.9-.94,7.37-2.82,10.39-1.88,3.02-4.59,5.2-8.11,6.51l11,22.35h-17.44Z"/><path class="cls-14" d="M236.97,210.43c1.72-2.34,2.57-5.48,2.57-9.44s-.86-7.19-2.57-9.52c-1.72-2.34-4.14-3.5-7.29-3.5s-5.65,1.17-7.36,3.5c-1.72,2.34-2.57,5.51-2.57,9.52s.86,7.11,2.57,9.44c1.72,2.34,4.17,3.5,7.36,3.5s5.57-1.17,7.29-3.5Zm-20.4,16.7c-3.98-2.58-7.14-6.16-9.47-10.72-2.33-4.56-3.5-9.7-3.5-15.42s1.17-10.86,3.5-15.42c2.33-4.56,5.49-8.12,9.47-10.68,3.98-2.56,8.35-3.83,13.11-3.83s9.12,1.28,13.08,3.83c3.95,2.56,7.08,6.12,9.4,10.68,2.31,4.56,3.47,9.7,3.47,15.42s-1.16,10.86-3.47,15.42c-2.31,4.56-5.46,8.14-9.43,10.72-3.98,2.59-8.33,3.88-13.04,3.88s-9.14-1.29-13.11-3.88Z"/><path class="cls-14" d="M266.16,226.1c-3.93-3.27-6.06-8.07-6.4-14.39h16.86c.24,3.35,1.52,5.03,3.86,5.03,.86,0,1.58-.23,2.18-.7,.6-.47,.89-1.2,.89-2.18,0-1.37-.64-2.49-1.93-3.34-1.29-.85-3.29-1.83-6-2.93-3.24-1.32-5.92-2.61-8.04-3.88-2.12-1.26-3.94-3.1-5.47-5.52-1.53-2.42-2.24-5.53-2.22-9.32,.02-3.79,.85-7.02,2.54-9.69,1.69-2.67,4-4.69,6.93-6.06,2.93-1.37,6.23-2.06,9.9-2.06,6.19,0,11.11,1.65,14.76,4.95,3.64,3.3,5.56,7.94,5.75,13.94h-17.08c-.05-1.65-.41-2.83-1.07-3.55-.67-.71-1.48-1.07-2.43-1.07-.67,0-1.21,.26-1.64,.78-.43,.52-.64,1.25-.64,2.18,0,1.32,.63,2.41,1.89,3.26,1.26,.85,3.27,1.89,6.04,3.09,3.19,1.38,5.82,2.69,7.9,3.96,2.07,1.27,3.87,3.02,5.39,5.28,1.52,2.25,2.29,5.09,2.29,8.49s-.76,6.78-2.29,9.61c-1.53,2.83-3.74,5.04-6.65,6.64-2.91,1.6-6.36,2.39-10.36,2.39-6.05,0-11.04-1.64-14.97-4.91Z"/><rect class="cls-14" x="306" y="172.05" width="15.86" height="58.38"/><path class="cls-14" d="M357.59,207.83l-4.57-16.24-4.57,16.24h9.15Zm3.86,13.77h-16.87l-2.5,8.82h-16.65l18.51-58.38h18.29l18.44,58.38h-16.72l-2.5-8.82Z"/></g><g><polygon class="cls-9" points="34.86 186.16 34.86 193.33 50.59 193.33 50.59 207.1 34.86 207.1 34.86 215.35 52.73 215.35 52.73 229.95 19 229.95 19 171.56 52.73 171.56 52.73 186.16 34.86 186.16"/><polygon class="cls-9" points="90.96 229.95 81.67 214.77 73.95 229.95 55.87 229.95 72.52 199.85 55.16 171.56 73.95 171.56 82.89 186.16 90.32 171.56 108.4 171.56 92.03 201.08 109.75 229.95 90.96 229.95"/><polygon class="cls-9" points="153.06 171.56 153.06 186.08 139.62 186.08 139.62 229.95 123.76 229.95 123.76 186.08 110.47 186.08 110.47 171.56 153.06 171.56"/><path class="cls-9" d="M173.21,196.8h6.29c1.52,0,2.67-.4,3.43-1.2,.76-.8,1.14-2.05,1.14-3.75,0-1.54-.39-2.75-1.18-3.63-.79-.88-1.92-1.32-3.39-1.32h-6.29v9.9Zm9.58,33.15l-9.5-20.95h-.07v20.95h-15.86v-58.38h23.58c4.1,0,7.6,.84,10.5,2.52,2.91,1.68,5.08,3.96,6.54,6.84,1.45,2.89,2.18,6.14,2.18,9.77,0,3.9-.94,7.37-2.82,10.39-1.88,3.02-4.59,5.2-8.11,6.51l11,22.35h-17.44Z"/><path class="cls-9" d="M237.17,209.95c1.72-2.34,2.57-5.48,2.57-9.44s-.86-7.19-2.57-9.52c-1.72-2.34-4.14-3.5-7.29-3.5s-5.65,1.17-7.36,3.5c-1.72,2.34-2.57,5.51-2.57,9.52s.86,7.11,2.57,9.44c1.72,2.34,4.17,3.5,7.36,3.5s5.57-1.17,7.29-3.5Zm-20.4,16.7c-3.98-2.58-7.14-6.16-9.47-10.72-2.33-4.56-3.5-9.7-3.5-15.42s1.17-10.86,3.5-15.42c2.33-4.56,5.49-8.12,9.47-10.68,3.98-2.56,8.35-3.83,13.11-3.83s9.12,1.28,13.08,3.83c3.95,2.56,7.08,6.12,9.4,10.68,2.31,4.56,3.47,9.7,3.47,15.42s-1.16,10.86-3.47,15.42c-2.31,4.56-5.46,8.14-9.43,10.72-3.98,2.59-8.33,3.88-13.04,3.88s-9.14-1.29-13.11-3.88Z"/><path class="cls-9" d="M266.36,225.62c-3.93-3.27-6.06-8.07-6.4-14.39h16.86c.24,3.35,1.52,5.03,3.86,5.03,.86,0,1.58-.23,2.18-.7,.6-.47,.89-1.2,.89-2.18,0-1.37-.64-2.49-1.93-3.34-1.29-.85-3.29-1.83-6-2.93-3.24-1.32-5.92-2.61-8.04-3.88-2.12-1.26-3.94-3.1-5.47-5.52-1.53-2.42-2.24-5.53-2.22-9.32s.85-7.02,2.54-9.69c1.69-2.67,4-4.69,6.93-6.06,2.93-1.37,6.23-2.06,9.9-2.06,6.19,0,11.11,1.65,14.76,4.95,3.64,3.3,5.56,7.94,5.75,13.94h-17.08c-.05-1.65-.41-2.83-1.07-3.55-.67-.71-1.48-1.07-2.43-1.07-.67,0-1.21,.26-1.64,.78-.43,.52-.64,1.25-.64,2.18,0,1.32,.63,2.41,1.89,3.26,1.26,.85,3.27,1.89,6.04,3.09,3.19,1.38,5.82,2.69,7.9,3.96,2.07,1.27,3.87,3.02,5.39,5.28,1.52,2.25,2.29,5.09,2.29,8.49s-.76,6.78-2.29,9.61c-1.53,2.83-3.74,5.04-6.65,6.64-2.91,1.6-6.36,2.39-10.36,2.39-6.05,0-11.04-1.64-14.97-4.91Z"/><rect class="cls-9" x="306.2" y="171.56" width="15.86" height="58.38"/><path class="cls-9" d="M357.79,207.35l-4.57-16.24-4.57,16.24h9.15Zm3.86,13.77h-16.87l-2.5,8.82h-16.65l18.51-58.38h18.29l18.44,58.38h-16.72l-2.5-8.82Z"/></g><g><polygon class="cls-3" points="35.06 185.68 35.06 192.85 50.78 192.85 50.78 206.62 35.06 206.62 35.06 214.87 52.93 214.87 52.93 229.46 19.2 229.46 19.2 171.08 52.93 171.08 52.93 185.68 35.06 185.68"/><polygon class="cls-3" points="91.16 229.46 81.87 214.29 74.15 229.46 56.07 229.46 72.72 199.37 55.36 171.08 74.15 171.08 83.08 185.68 90.52 171.08 108.6 171.08 92.23 200.6 109.95 229.46 91.16 229.46"/><polygon class="cls-3" points="153.26 171.08 153.26 185.6 139.82 185.6 139.82 229.46 123.96 229.46 123.96 185.6 110.67 185.6 110.67 171.08 153.26 171.08"/><path class="cls-3" d="M173.41,196.32h6.29c1.52,0,2.67-.4,3.43-1.2,.76-.8,1.14-2.05,1.14-3.75,0-1.54-.39-2.75-1.18-3.63-.79-.88-1.92-1.32-3.39-1.32h-6.29v9.9Zm9.58,33.15l-9.5-20.95h-.07v20.95h-15.86v-58.38h23.58c4.1,0,7.6,.84,10.5,2.52,2.91,1.68,5.08,3.96,6.54,6.84,1.45,2.89,2.18,6.14,2.18,9.77,0,3.9-.94,7.37-2.82,10.39-1.88,3.02-4.59,5.2-8.11,6.51l11,22.35h-17.44Z"/><path class="cls-3" d="M237.37,209.47c1.72-2.34,2.57-5.48,2.57-9.44s-.86-7.19-2.57-9.52c-1.72-2.34-4.14-3.5-7.29-3.5s-5.65,1.17-7.36,3.5c-1.72,2.34-2.57,5.51-2.57,9.52s.86,7.11,2.57,9.44c1.72,2.34,4.17,3.5,7.36,3.5s5.57-1.17,7.29-3.5Zm-20.4,16.7c-3.98-2.58-7.14-6.16-9.47-10.72-2.33-4.56-3.5-9.7-3.5-15.42s1.17-10.86,3.5-15.42c2.33-4.56,5.49-8.12,9.47-10.68,3.98-2.56,8.35-3.83,13.11-3.83s9.12,1.28,13.08,3.83c3.95,2.56,7.08,6.12,9.4,10.68,2.31,4.56,3.47,9.7,3.47,15.42s-1.16,10.86-3.47,15.42c-2.31,4.56-5.46,8.14-9.43,10.72-3.98,2.59-8.33,3.88-13.04,3.88s-9.14-1.29-13.11-3.88Z"/><path class="cls-3" d="M266.56,225.13c-3.93-3.27-6.06-8.07-6.4-14.39h16.86c.24,3.35,1.52,5.03,3.86,5.03,.86,0,1.58-.23,2.18-.7,.6-.47,.89-1.2,.89-2.18,0-1.37-.64-2.49-1.93-3.34-1.29-.85-3.29-1.83-6-2.93-3.24-1.32-5.92-2.61-8.04-3.88-2.12-1.26-3.94-3.1-5.47-5.52-1.53-2.42-2.24-5.53-2.22-9.32s.85-7.02,2.54-9.69c1.69-2.67,4-4.69,6.93-6.06,2.93-1.37,6.23-2.06,9.9-2.06,6.19,0,11.11,1.65,14.76,4.95,3.64,3.3,5.56,7.94,5.75,13.94h-17.08c-.05-1.65-.41-2.83-1.07-3.55-.67-.71-1.48-1.07-2.43-1.07-.67,0-1.21,.26-1.64,.78-.43,.52-.64,1.25-.64,2.18,0,1.32,.63,2.41,1.89,3.26,1.26,.85,3.27,1.89,6.04,3.09,3.19,1.38,5.82,2.69,7.9,3.96,2.07,1.27,3.87,3.02,5.39,5.28,1.52,2.25,2.29,5.09,2.29,8.49s-.76,6.78-2.29,9.61c-1.53,2.83-3.74,5.04-6.65,6.64-2.91,1.6-6.36,2.39-10.36,2.39-6.05,0-11.04-1.64-14.97-4.91Z"/><rect class="cls-3" x="306.4" y="171.08" width="15.86" height="58.38"/><path class="cls-3" d="M357.99,206.87l-4.57-16.24-4.57,16.24h9.15Zm3.86,13.77h-16.87l-2.5,8.82h-16.65l18.51-58.38h18.29l18.44,58.38h-16.72l-2.5-8.82Z"/></g><g><polygon class="cls-24" points="35.26 185.2 35.26 192.37 50.98 192.37 50.98 206.14 35.26 206.14 35.26 214.39 53.13 214.39 53.13 228.98 19.4 228.98 19.4 170.6 53.13 170.6 53.13 185.2 35.26 185.2"/><polygon class="cls-24" points="91.36 228.98 82.07 213.81 74.35 228.98 56.27 228.98 72.92 198.88 55.56 170.6 74.35 170.6 83.28 185.2 90.72 170.6 108.79 170.6 92.43 200.12 110.15 228.98 91.36 228.98"/><polygon class="cls-24" points="153.46 170.6 153.46 185.11 140.02 185.11 140.02 228.98 124.16 228.98 124.16 185.11 110.87 185.11 110.87 170.6 153.46 170.6"/><path class="cls-24" d="M173.61,195.83h6.29c1.52,0,2.67-.4,3.43-1.2,.76-.8,1.14-2.05,1.14-3.75,0-1.54-.39-2.75-1.18-3.63-.79-.88-1.92-1.32-3.39-1.32h-6.29v9.9Zm9.58,33.15l-9.5-20.95h-.07v20.95h-15.86v-58.38h23.58c4.1,0,7.6,.84,10.5,2.52,2.91,1.68,5.08,3.96,6.54,6.84,1.45,2.89,2.18,6.14,2.18,9.77,0,3.9-.94,7.37-2.82,10.39-1.88,3.02-4.59,5.2-8.11,6.51l11,22.35h-17.44Z"/><path class="cls-24" d="M237.57,208.99c1.72-2.34,2.57-5.48,2.57-9.44s-.86-7.19-2.57-9.52c-1.72-2.34-4.14-3.5-7.29-3.5s-5.65,1.17-7.36,3.5c-1.72,2.34-2.57,5.51-2.57,9.52s.86,7.11,2.57,9.44c1.72,2.34,4.17,3.5,7.36,3.5s5.57-1.17,7.29-3.5Zm-20.4,16.7c-3.98-2.58-7.14-6.16-9.47-10.72-2.33-4.56-3.5-9.7-3.5-15.42s1.17-10.86,3.5-15.42c2.33-4.56,5.49-8.12,9.47-10.68,3.98-2.56,8.35-3.83,13.11-3.83s9.12,1.28,13.08,3.83c3.95,2.56,7.08,6.12,9.4,10.68,2.31,4.56,3.47,9.7,3.47,15.42s-1.16,10.86-3.47,15.42c-2.31,4.56-5.46,8.14-9.43,10.72-3.98,2.59-8.33,3.88-13.04,3.88s-9.14-1.29-13.11-3.88Z"/><path class="cls-24" d="M266.76,224.65c-3.93-3.27-6.06-8.07-6.4-14.39h16.86c.24,3.35,1.52,5.03,3.86,5.03,.86,0,1.58-.23,2.18-.7,.6-.47,.89-1.2,.89-2.18,0-1.37-.64-2.49-1.93-3.34-1.29-.85-3.29-1.83-6-2.93-3.24-1.32-5.92-2.61-8.04-3.88-2.12-1.26-3.94-3.1-5.47-5.52-1.53-2.42-2.24-5.53-2.22-9.32s.85-7.02,2.54-9.69c1.69-2.67,4-4.69,6.93-6.06,2.93-1.37,6.23-2.06,9.9-2.06,6.19,0,11.11,1.65,14.76,4.95,3.64,3.3,5.56,7.94,5.75,13.94h-17.08c-.05-1.65-.41-2.83-1.07-3.55-.67-.71-1.48-1.07-2.43-1.07-.67,0-1.21,.26-1.64,.78-.43,.52-.64,1.25-.64,2.18,0,1.32,.63,2.41,1.89,3.26,1.26,.85,3.27,1.89,6.04,3.09,3.19,1.38,5.82,2.69,7.9,3.96,2.07,1.27,3.87,3.02,5.39,5.28,1.52,2.25,2.29,5.09,2.29,8.49s-.76,6.78-2.29,9.61c-1.53,2.83-3.74,5.04-6.65,6.64-2.91,1.6-6.36,2.39-10.36,2.39-6.05,0-11.04-1.64-14.97-4.91Z"/><rect class="cls-24" x="306.6" y="170.6" width="15.86" height="58.38"/><path class="cls-24" d="M358.19,206.39l-4.57-16.24-4.57,16.24h9.15Zm3.86,13.77h-16.87l-2.5,8.82h-16.65l18.51-58.38h18.29l18.44,58.38h-16.72l-2.5-8.82Z"/></g><g><polygon class="cls-23" points="35.46 184.71 35.46 191.89 51.18 191.89 51.18 205.66 35.46 205.66 35.46 213.91 53.33 213.91 53.33 228.5 19.6 228.5 19.6 170.12 53.33 170.12 53.33 184.71 35.46 184.71"/><polygon class="cls-23" points="91.56 228.5 82.27 213.33 74.55 228.5 56.47 228.5 73.12 198.4 55.76 170.12 74.55 170.12 83.48 184.71 90.91 170.12 108.99 170.12 92.63 199.64 110.35 228.5 91.56 228.5"/><polygon class="cls-23" points="153.66 170.12 153.66 184.63 140.22 184.63 140.22 228.5 124.36 228.5 124.36 184.63 111.07 184.63 111.07 170.12 153.66 170.12"/><path class="cls-23" d="M173.81,195.35h6.29c1.52,0,2.67-.4,3.43-1.2,.76-.8,1.14-2.05,1.14-3.75,0-1.54-.39-2.75-1.18-3.63-.79-.88-1.92-1.32-3.39-1.32h-6.29v9.9Zm9.58,33.15l-9.5-20.95h-.07v20.95h-15.86v-58.38h23.58c4.1,0,7.6,.84,10.5,2.52,2.91,1.68,5.08,3.96,6.54,6.84,1.45,2.89,2.18,6.14,2.18,9.77,0,3.9-.94,7.37-2.82,10.39-1.88,3.02-4.59,5.2-8.11,6.51l11,22.35h-17.44Z"/><path class="cls-23" d="M237.77,208.5c1.72-2.34,2.57-5.48,2.57-9.44s-.86-7.19-2.57-9.52c-1.72-2.34-4.14-3.5-7.29-3.5s-5.65,1.17-7.36,3.5c-1.72,2.34-2.57,5.51-2.57,9.52s.86,7.11,2.57,9.44c1.72,2.34,4.17,3.5,7.36,3.5s5.57-1.17,7.29-3.5Zm-20.4,16.7c-3.98-2.58-7.14-6.16-9.47-10.72-2.33-4.56-3.5-9.7-3.5-15.42s1.17-10.86,3.5-15.42c2.33-4.56,5.49-8.12,9.47-10.68,3.98-2.56,8.35-3.83,13.11-3.83s9.12,1.28,13.08,3.83c3.95,2.56,7.08,6.12,9.4,10.68,2.31,4.56,3.47,9.7,3.47,15.42s-1.16,10.86-3.47,15.42c-2.31,4.56-5.46,8.14-9.43,10.72-3.98,2.59-8.33,3.88-13.04,3.88s-9.14-1.29-13.11-3.88Z"/><path class="cls-23" d="M266.96,224.17c-3.93-3.27-6.06-8.07-6.4-14.39h16.86c.24,3.35,1.52,5.03,3.86,5.03,.86,0,1.58-.23,2.18-.7,.6-.47,.89-1.2,.89-2.18,0-1.37-.64-2.49-1.93-3.34-1.29-.85-3.29-1.83-6-2.93-3.24-1.32-5.92-2.61-8.04-3.88-2.12-1.26-3.94-3.1-5.47-5.52-1.53-2.42-2.24-5.52-2.22-9.32s.85-7.02,2.54-9.69c1.69-2.67,4-4.69,6.93-6.06,2.93-1.37,6.23-2.06,9.9-2.06,6.19,0,11.11,1.65,14.76,4.95,3.64,3.3,5.56,7.94,5.75,13.94h-17.08c-.05-1.65-.41-2.83-1.07-3.55-.67-.71-1.48-1.07-2.43-1.07-.67,0-1.21,.26-1.64,.78-.43,.52-.64,1.25-.64,2.18,0,1.32,.63,2.41,1.89,3.26,1.26,.85,3.27,1.89,6.04,3.09,3.19,1.38,5.82,2.69,7.9,3.96,2.07,1.27,3.87,3.02,5.39,5.28,1.52,2.25,2.29,5.09,2.29,8.49s-.76,6.78-2.29,9.61c-1.53,2.83-3.74,5.04-6.65,6.64-2.91,1.6-6.36,2.39-10.36,2.39-6.05,0-11.04-1.64-14.97-4.91Z"/><rect class="cls-23" x="306.8" y="170.12" width="15.86" height="58.38"/><path class="cls-23" d="M358.39,205.91l-4.57-16.24-4.57,16.24h9.15Zm3.86,13.77h-16.87l-2.5,8.82h-16.65l18.51-58.38h18.29l18.44,58.38h-16.72l-2.5-8.82Z"/></g><g><polygon class="cls-2" points="35.66 184.23 35.66 191.41 51.38 191.41 51.38 205.18 35.66 205.18 35.66 213.42 53.52 213.42 53.52 228.02 19.8 228.02 19.8 169.64 53.52 169.64 53.52 184.23 35.66 184.23"/><polygon class="cls-2" points="91.76 228.02 82.47 212.85 74.75 228.02 56.67 228.02 73.32 197.92 55.95 169.64 74.75 169.64 83.68 184.23 91.11 169.64 109.19 169.64 92.83 199.16 110.55 228.02 91.76 228.02"/><polygon class="cls-2" points="153.86 169.64 153.86 184.15 140.42 184.15 140.42 228.02 124.56 228.02 124.56 184.15 111.26 184.15 111.26 169.64 153.86 169.64"/><path class="cls-2" d="M174.01,194.87h6.29c1.52,0,2.67-.4,3.43-1.2,.76-.8,1.14-2.05,1.14-3.75,0-1.54-.39-2.75-1.18-3.63-.79-.88-1.92-1.32-3.39-1.32h-6.29v9.9Zm9.58,33.15l-9.5-20.95h-.07v20.95h-15.86v-58.38h23.58c4.1,0,7.6,.84,10.5,2.52,2.91,1.68,5.08,3.96,6.54,6.84,1.45,2.89,2.18,6.14,2.18,9.77,0,3.9-.94,7.37-2.82,10.39-1.88,3.02-4.59,5.2-8.11,6.51l11,22.35h-17.44Z"/><path class="cls-2" d="M237.96,208.02c1.72-2.34,2.57-5.48,2.57-9.44s-.86-7.19-2.57-9.52c-1.72-2.34-4.14-3.5-7.29-3.5s-5.65,1.17-7.36,3.5c-1.72,2.34-2.57,5.51-2.57,9.52s.86,7.11,2.57,9.44c1.72,2.34,4.17,3.5,7.36,3.5s5.57-1.17,7.29-3.5Zm-20.4,16.7c-3.98-2.58-7.14-6.16-9.47-10.72-2.33-4.56-3.5-9.7-3.5-15.42s1.17-10.86,3.5-15.42c2.33-4.56,5.49-8.12,9.47-10.68,3.98-2.56,8.35-3.83,13.11-3.83s9.12,1.28,13.08,3.83c3.95,2.56,7.08,6.12,9.4,10.68,2.31,4.56,3.47,9.7,3.47,15.42s-1.16,10.86-3.47,15.42c-2.31,4.56-5.46,8.14-9.43,10.72-3.98,2.59-8.33,3.88-13.04,3.88s-9.14-1.29-13.11-3.88Z"/><path class="cls-2" d="M267.16,223.69c-3.93-3.27-6.06-8.07-6.4-14.39h16.86c.24,3.35,1.52,5.03,3.86,5.03,.86,0,1.58-.23,2.18-.7,.6-.47,.89-1.2,.89-2.18,0-1.37-.64-2.49-1.93-3.34-1.29-.85-3.29-1.83-6-2.93-3.24-1.32-5.92-2.61-8.04-3.88-2.12-1.26-3.94-3.1-5.47-5.52-1.53-2.42-2.24-5.52-2.22-9.32s.85-7.02,2.54-9.69c1.69-2.67,4-4.69,6.93-6.06,2.93-1.37,6.23-2.06,9.9-2.06,6.19,0,11.11,1.65,14.76,4.95,3.64,3.3,5.56,7.94,5.75,13.94h-17.08c-.05-1.65-.41-2.83-1.07-3.55-.67-.71-1.48-1.07-2.43-1.07-.67,0-1.21,.26-1.64,.78-.43,.52-.64,1.25-.64,2.18,0,1.32,.63,2.41,1.89,3.26,1.26,.85,3.27,1.89,6.04,3.09,3.19,1.38,5.82,2.69,7.9,3.96,2.07,1.27,3.87,3.02,5.39,5.28,1.52,2.25,2.29,5.09,2.29,8.49s-.76,6.78-2.29,9.61c-1.53,2.83-3.74,5.04-6.65,6.64-2.91,1.6-6.36,2.39-10.36,2.39-6.05,0-11.04-1.64-14.97-4.91Z"/><rect class="cls-2" x="306.99" y="169.64" width="15.86" height="58.38"/><path class="cls-2" d="M358.59,205.42l-4.57-16.24-4.57,16.24h9.15Zm3.86,13.77h-16.87l-2.5,8.82h-16.65l18.51-58.38h18.29l18.44,58.38h-16.72l-2.5-8.82Z"/></g><g><polygon class="cls-15" points="35.86 183.75 35.86 190.93 51.58 190.93 51.58 204.7 35.86 204.7 35.86 212.94 53.72 212.94 53.72 227.54 19.99 227.54 19.99 169.16 53.72 169.16 53.72 183.75 35.86 183.75"/><polygon class="cls-15" points="91.96 227.54 82.66 212.36 74.95 227.54 56.87 227.54 73.52 197.44 56.15 169.16 74.95 169.16 83.88 183.75 91.31 169.16 109.39 169.16 93.03 198.68 110.75 227.54 91.96 227.54"/><polygon class="cls-15" points="154.05 169.16 154.05 183.67 140.62 183.67 140.62 227.54 124.76 227.54 124.76 183.67 111.46 183.67 111.46 169.16 154.05 169.16"/><path class="cls-15" d="M174.21,194.39h6.29c1.52,0,2.67-.4,3.43-1.2,.76-.8,1.14-2.05,1.14-3.75,0-1.54-.39-2.75-1.18-3.63-.79-.88-1.92-1.32-3.39-1.32h-6.29v9.9Zm9.58,33.15l-9.5-20.95h-.07v20.95h-15.86v-58.38h23.58c4.1,0,7.6,.84,10.5,2.52,2.91,1.68,5.08,3.96,6.54,6.84,1.45,2.89,2.18,6.14,2.18,9.77,0,3.9-.94,7.37-2.82,10.39-1.88,3.02-4.59,5.2-8.11,6.51l11,22.35h-17.44Z"/><path class="cls-15" d="M238.16,207.54c1.72-2.34,2.57-5.48,2.57-9.44s-.86-7.19-2.57-9.52c-1.72-2.34-4.14-3.5-7.29-3.5s-5.65,1.17-7.36,3.5c-1.72,2.34-2.57,5.51-2.57,9.52s.86,7.11,2.57,9.44c1.72,2.34,4.17,3.5,7.36,3.5s5.57-1.17,7.29-3.5Zm-20.4,16.7c-3.98-2.58-7.14-6.16-9.47-10.72-2.33-4.56-3.5-9.7-3.5-15.42s1.17-10.86,3.5-15.42c2.33-4.56,5.49-8.12,9.47-10.68,3.98-2.56,8.35-3.83,13.11-3.83s9.12,1.28,13.08,3.83c3.95,2.56,7.08,6.12,9.4,10.68,2.31,4.56,3.47,9.7,3.47,15.42s-1.16,10.86-3.47,15.42c-2.31,4.56-5.46,8.14-9.43,10.72-3.98,2.59-8.33,3.88-13.04,3.88s-9.14-1.29-13.11-3.88Z"/><path class="cls-15" d="M267.35,223.21c-3.93-3.27-6.06-8.07-6.4-14.39h16.86c.24,3.35,1.52,5.03,3.86,5.03,.86,0,1.58-.23,2.18-.7,.6-.47,.89-1.2,.89-2.18,0-1.37-.64-2.49-1.93-3.34-1.29-.85-3.29-1.83-6-2.93-3.24-1.32-5.92-2.61-8.04-3.88-2.12-1.26-3.94-3.1-5.47-5.52-1.53-2.42-2.24-5.52-2.22-9.32s.85-7.02,2.54-9.69c1.69-2.67,4-4.69,6.93-6.06,2.93-1.37,6.23-2.06,9.9-2.06,6.19,0,11.11,1.65,14.76,4.95,3.64,3.3,5.56,7.94,5.75,13.94h-17.08c-.05-1.65-.41-2.83-1.07-3.55-.67-.71-1.48-1.07-2.43-1.07-.67,0-1.21,.26-1.64,.78-.43,.52-.64,1.25-.64,2.18,0,1.32,.63,2.41,1.89,3.26,1.26,.85,3.27,1.89,6.04,3.09,3.19,1.38,5.82,2.69,7.9,3.96,2.07,1.27,3.87,3.02,5.39,5.28,1.52,2.25,2.29,5.09,2.29,8.49s-.76,6.78-2.29,9.61c-1.53,2.83-3.74,5.04-6.65,6.64-2.91,1.6-6.36,2.39-10.36,2.39-6.05,0-11.04-1.64-14.97-4.91Z"/><rect class="cls-15" x="307.19" y="169.16" width="15.86" height="58.38"/><path class="cls-15" d="M358.79,204.94l-4.57-16.24-4.57,16.24h9.15Zm3.86,13.77h-16.87l-2.5,8.82h-16.65l18.51-58.38h18.29l18.44,58.38h-16.72l-2.5-8.82Z"/></g><g><polygon class="cls-37" points="36.06 183.27 36.06 190.44 51.78 190.44 51.78 204.21 36.06 204.21 36.06 212.46 53.92 212.46 53.92 227.06 20.19 227.06 20.19 168.67 53.92 168.67 53.92 183.27 36.06 183.27"/><polygon class="cls-37" points="92.15 227.06 82.86 211.88 75.15 227.06 57.07 227.06 73.72 196.96 56.35 168.67 75.15 168.67 84.08 183.27 91.51 168.67 109.59 168.67 93.23 198.19 110.95 227.06 92.15 227.06"/><polygon class="cls-37" points="154.25 168.67 154.25 183.19 140.82 183.19 140.82 227.06 124.95 227.06 124.95 183.19 111.66 183.19 111.66 168.67 154.25 168.67"/><path class="cls-37" d="M174.4,193.91h6.29c1.52,0,2.67-.4,3.43-1.2,.76-.8,1.14-2.05,1.14-3.75,0-1.54-.39-2.75-1.18-3.63-.79-.88-1.92-1.32-3.39-1.32h-6.29v9.9Zm9.58,33.15l-9.5-20.95h-.07v20.95h-15.86v-58.38h23.58c4.1,0,7.6,.84,10.5,2.52,2.91,1.68,5.08,3.96,6.54,6.84,1.45,2.89,2.18,6.14,2.18,9.77,0,3.9-.94,7.37-2.82,10.39-1.88,3.02-4.59,5.2-8.11,6.51l11,22.35h-17.44Z"/><path class="cls-37" d="M238.36,207.06c1.72-2.34,2.57-5.48,2.57-9.44s-.86-7.19-2.57-9.52c-1.72-2.34-4.14-3.5-7.29-3.5s-5.65,1.17-7.36,3.5c-1.72,2.34-2.57,5.51-2.57,9.52s.86,7.11,2.57,9.44c1.72,2.34,4.17,3.5,7.36,3.5s5.57-1.17,7.29-3.5Zm-20.4,16.7c-3.98-2.58-7.14-6.16-9.47-10.72-2.33-4.56-3.5-9.7-3.5-15.42s1.17-10.86,3.5-15.42c2.33-4.56,5.49-8.12,9.47-10.68,3.98-2.56,8.35-3.83,13.11-3.83s9.12,1.28,13.08,3.83c3.95,2.56,7.08,6.12,9.4,10.68,2.31,4.56,3.47,9.7,3.47,15.42s-1.16,10.86-3.47,15.42c-2.31,4.56-5.46,8.14-9.43,10.72-3.98,2.59-8.33,3.88-13.04,3.88s-9.14-1.29-13.11-3.88Z"/><path class="cls-37" d="M267.55,222.73c-3.93-3.27-6.06-8.07-6.4-14.39h16.86c.24,3.35,1.52,5.03,3.86,5.03,.86,0,1.58-.23,2.18-.7,.6-.47,.89-1.2,.89-2.18,0-1.37-.64-2.49-1.93-3.34-1.29-.85-3.29-1.83-6-2.93-3.24-1.32-5.92-2.61-8.04-3.88-2.12-1.26-3.94-3.1-5.47-5.52-1.53-2.42-2.24-5.52-2.22-9.32s.85-7.02,2.54-9.69c1.69-2.67,4-4.69,6.93-6.06,2.93-1.37,6.23-2.06,9.9-2.06,6.19,0,11.11,1.65,14.76,4.95,3.64,3.3,5.56,7.94,5.75,13.94h-17.08c-.05-1.65-.41-2.83-1.07-3.55-.67-.71-1.48-1.07-2.43-1.07-.67,0-1.21,.26-1.64,.78-.43,.52-.64,1.25-.64,2.18,0,1.32,.63,2.41,1.89,3.26,1.26,.85,3.27,1.89,6.04,3.09,3.19,1.38,5.82,2.69,7.9,3.96,2.07,1.27,3.87,3.02,5.39,5.28,1.52,2.25,2.29,5.09,2.29,8.49s-.76,6.78-2.29,9.61c-1.53,2.83-3.74,5.04-6.65,6.64-2.91,1.6-6.36,2.39-10.36,2.39-6.05,0-11.04-1.64-14.97-4.91Z"/><rect class="cls-37" x="307.39" y="168.67" width="15.86" height="58.38"/><path class="cls-37" d="M358.99,204.46l-4.57-16.24-4.57,16.24h9.15Zm3.86,13.77h-16.87l-2.5,8.82h-16.65l18.51-58.38h18.29l18.44,58.38h-16.72l-2.5-8.82Z"/></g><g><polygon class="cls-11" points="36.26 182.79 36.26 189.96 51.98 189.96 51.98 203.73 36.26 203.73 36.26 211.98 54.12 211.98 54.12 226.57 20.39 226.57 20.39 168.19 54.12 168.19 54.12 182.79 36.26 182.79"/><polygon class="cls-11" points="92.35 226.57 83.06 211.4 75.35 226.57 57.27 226.57 73.92 196.48 56.55 168.19 75.35 168.19 84.28 182.79 91.71 168.19 109.79 168.19 93.42 197.71 111.15 226.57 92.35 226.57"/><polygon class="cls-11" points="154.45 168.19 154.45 182.71 141.02 182.71 141.02 226.57 125.15 226.57 125.15 182.71 111.86 182.71 111.86 168.19 154.45 168.19"/><path class="cls-11" d="M174.6,193.43h6.29c1.52,0,2.67-.4,3.43-1.2,.76-.8,1.14-2.05,1.14-3.75,0-1.54-.39-2.75-1.18-3.63-.79-.88-1.92-1.32-3.39-1.32h-6.29v9.9Zm9.58,33.15l-9.5-20.95h-.07v20.95h-15.86v-58.38h23.58c4.1,0,7.6,.84,10.5,2.52,2.91,1.68,5.08,3.96,6.54,6.84,1.45,2.89,2.18,6.14,2.18,9.77,0,3.9-.94,7.37-2.82,10.39-1.88,3.02-4.59,5.2-8.11,6.51l11,22.35h-17.44Z"/><path class="cls-11" d="M238.56,206.58c1.72-2.34,2.57-5.48,2.57-9.44s-.86-7.19-2.57-9.52c-1.72-2.34-4.14-3.5-7.29-3.5s-5.65,1.17-7.36,3.5c-1.72,2.34-2.57,5.51-2.57,9.52s.86,7.11,2.57,9.44c1.72,2.34,4.17,3.5,7.36,3.5s5.57-1.17,7.29-3.5Zm-20.4,16.7c-3.98-2.58-7.14-6.16-9.47-10.72-2.33-4.56-3.5-9.7-3.5-15.42s1.17-10.86,3.5-15.42c2.33-4.56,5.49-8.12,9.47-10.68,3.98-2.56,8.35-3.83,13.11-3.83s9.12,1.28,13.08,3.83c3.95,2.56,7.08,6.12,9.4,10.68,2.31,4.56,3.47,9.7,3.47,15.42s-1.16,10.86-3.47,15.42c-2.31,4.56-5.46,8.14-9.43,10.72-3.98,2.59-8.33,3.88-13.04,3.88s-9.14-1.29-13.11-3.88Z"/><path class="cls-11" d="M267.75,222.24c-3.93-3.27-6.06-8.07-6.4-14.39h16.86c.24,3.35,1.52,5.03,3.86,5.03,.86,0,1.58-.23,2.18-.7,.6-.47,.89-1.2,.89-2.18,0-1.37-.64-2.49-1.93-3.34-1.29-.85-3.29-1.83-6-2.93-3.24-1.32-5.92-2.61-8.04-3.88-2.12-1.26-3.94-3.1-5.47-5.52-1.53-2.42-2.24-5.52-2.22-9.32s.85-7.02,2.54-9.69c1.69-2.67,4-4.69,6.93-6.06,2.93-1.37,6.23-2.06,9.9-2.06,6.19,0,11.11,1.65,14.76,4.95,3.64,3.3,5.56,7.94,5.75,13.94h-17.08c-.05-1.65-.41-2.83-1.07-3.55-.67-.71-1.48-1.07-2.43-1.07-.67,0-1.21,.26-1.64,.78-.43,.52-.64,1.25-.64,2.18,0,1.32,.63,2.41,1.89,3.26,1.26,.85,3.27,1.89,6.04,3.09,3.19,1.38,5.82,2.69,7.9,3.96,2.07,1.27,3.87,3.02,5.39,5.28,1.52,2.25,2.29,5.09,2.29,8.49s-.76,6.78-2.29,9.61c-1.53,2.83-3.74,5.04-6.65,6.64-2.91,1.6-6.36,2.39-10.36,2.39-6.05,0-11.04-1.64-14.97-4.91Z"/><rect class="cls-11" x="307.59" y="168.19" width="15.86" height="58.38"/><path class="cls-11" d="M359.18,203.98l-4.57-16.24-4.57,16.24h9.15Zm3.86,13.77h-16.87l-2.5,8.82h-16.65l18.51-58.38h18.29l18.44,58.38h-16.72l-2.5-8.82Z"/></g><g><polygon class="cls-10" points="36.46 182.31 36.46 189.48 52.18 189.48 52.18 203.25 36.46 203.25 36.46 211.5 54.32 211.5 54.32 226.09 20.59 226.09 20.59 167.71 54.32 167.71 54.32 182.31 36.46 182.31"/><polygon class="cls-10" points="92.55 226.09 83.26 210.92 75.54 226.09 57.46 226.09 74.11 195.99 56.75 167.71 75.54 167.71 84.48 182.31 91.91 167.71 109.99 167.71 93.62 197.23 111.35 226.09 92.55 226.09"/><polygon class="cls-10" points="154.65 167.71 154.65 182.22 141.22 182.22 141.22 226.09 125.35 226.09 125.35 182.22 112.06 182.22 112.06 167.71 154.65 167.71"/><path class="cls-10" d="M174.8,192.94h6.29c1.52,0,2.67-.4,3.43-1.2,.76-.8,1.14-2.05,1.14-3.75,0-1.54-.39-2.75-1.18-3.63-.79-.88-1.92-1.32-3.39-1.32h-6.29v9.9Zm9.58,33.15l-9.5-20.95h-.07v20.95h-15.86v-58.38h23.58c4.1,0,7.6,.84,10.5,2.52,2.91,1.68,5.08,3.96,6.54,6.84,1.45,2.89,2.18,6.14,2.18,9.77,0,3.9-.94,7.37-2.82,10.39-1.88,3.02-4.59,5.2-8.11,6.51l11,22.35h-17.44Z"/><path class="cls-10" d="M238.76,206.1c1.72-2.34,2.57-5.48,2.57-9.44s-.86-7.19-2.57-9.52c-1.72-2.34-4.14-3.5-7.29-3.5s-5.65,1.17-7.36,3.5c-1.72,2.34-2.57,5.51-2.57,9.52s.86,7.11,2.57,9.44c1.72,2.34,4.17,3.5,7.36,3.5s5.57-1.17,7.29-3.5Zm-20.4,16.7c-3.98-2.58-7.14-6.16-9.47-10.72-2.33-4.56-3.5-9.7-3.5-15.42s1.17-10.86,3.5-15.42c2.33-4.56,5.49-8.12,9.47-10.68,3.98-2.56,8.35-3.83,13.11-3.83s9.12,1.28,13.08,3.83c3.95,2.56,7.08,6.12,9.4,10.68,2.31,4.56,3.47,9.7,3.47,15.42s-1.16,10.86-3.47,15.42c-2.31,4.56-5.46,8.14-9.43,10.72-3.98,2.59-8.33,3.88-13.04,3.88s-9.14-1.29-13.11-3.88Z"/><path class="cls-10" d="M267.95,221.76c-3.93-3.27-6.06-8.07-6.4-14.39h16.86c.24,3.35,1.52,5.03,3.86,5.03,.86,0,1.58-.23,2.18-.7,.6-.47,.89-1.2,.89-2.18,0-1.37-.64-2.49-1.93-3.34-1.29-.85-3.29-1.83-6-2.93-3.24-1.32-5.92-2.61-8.04-3.88-2.12-1.26-3.94-3.1-5.47-5.52-1.53-2.42-2.24-5.52-2.22-9.32s.85-7.02,2.54-9.69c1.69-2.67,4-4.69,6.93-6.06,2.93-1.37,6.23-2.06,9.9-2.06,6.19,0,11.11,1.65,14.76,4.95,3.64,3.3,5.56,7.94,5.75,13.94h-17.08c-.05-1.65-.41-2.83-1.07-3.55-.67-.71-1.48-1.07-2.43-1.07-.67,0-1.21,.26-1.64,.78-.43,.52-.64,1.25-.64,2.18,0,1.32,.63,2.41,1.89,3.26,1.26,.85,3.27,1.89,6.04,3.09,3.19,1.38,5.82,2.69,7.9,3.96,2.07,1.27,3.87,3.02,5.39,5.28,1.52,2.25,2.29,5.09,2.29,8.49s-.76,6.78-2.29,9.61c-1.53,2.83-3.74,5.04-6.65,6.64-2.91,1.6-6.36,2.39-10.36,2.39-6.05,0-11.04-1.64-14.97-4.91Z"/><rect class="cls-10" x="307.79" y="167.71" width="15.86" height="58.38"/><path class="cls-10" d="M359.38,203.5l-4.57-16.24-4.57,16.24h9.15Zm3.86,13.77h-16.87l-2.5,8.82h-16.65l18.51-58.38h18.29l18.44,58.38h-16.72l-2.5-8.82Z"/></g><g><polygon class="cls-36" points="36.65 181.82 36.65 189 52.38 189 52.38 202.77 36.65 202.77 36.65 211.02 54.52 211.02 54.52 225.61 20.79 225.61 20.79 167.23 54.52 167.23 54.52 181.82 36.65 181.82"/><polygon class="cls-36" points="92.75 225.61 83.46 210.44 75.74 225.61 57.66 225.61 74.31 195.51 56.95 167.23 75.74 167.23 84.68 181.82 92.11 167.23 110.19 167.23 93.82 196.75 111.55 225.61 92.75 225.61"/><polygon class="cls-36" points="154.85 167.23 154.85 181.74 141.42 181.74 141.42 225.61 125.55 225.61 125.55 181.74 112.26 181.74 112.26 167.23 154.85 167.23"/><path class="cls-36" d="M175,192.46h6.29c1.52,0,2.67-.4,3.43-1.2,.76-.8,1.14-2.05,1.14-3.75,0-1.54-.39-2.75-1.18-3.63-.79-.88-1.92-1.32-3.39-1.32h-6.29v9.9Zm9.58,33.15l-9.5-20.95h-.07v20.95h-15.86v-58.38h23.58c4.1,0,7.6,.84,10.5,2.52,2.91,1.68,5.08,3.96,6.54,6.84,1.45,2.89,2.18,6.14,2.18,9.77,0,3.9-.94,7.37-2.82,10.39-1.88,3.02-4.59,5.2-8.11,6.51l11,22.35h-17.44Z"/><path class="cls-36" d="M238.96,205.61c1.72-2.34,2.57-5.48,2.57-9.44s-.86-7.19-2.57-9.52c-1.72-2.34-4.14-3.5-7.29-3.5s-5.65,1.17-7.36,3.5c-1.72,2.34-2.57,5.51-2.57,9.52s.86,7.11,2.57,9.44c1.72,2.34,4.17,3.5,7.36,3.5s5.57-1.17,7.29-3.5Zm-20.4,16.7c-3.98-2.58-7.14-6.16-9.47-10.72-2.33-4.56-3.5-9.7-3.5-15.42s1.17-10.86,3.5-15.42c2.33-4.56,5.49-8.12,9.47-10.68,3.98-2.56,8.35-3.83,13.11-3.83s9.12,1.28,13.08,3.83c3.95,2.56,7.08,6.12,9.4,10.68,2.31,4.56,3.47,9.7,3.47,15.42s-1.16,10.86-3.47,15.42c-2.31,4.56-5.46,8.14-9.43,10.72-3.98,2.59-8.33,3.88-13.04,3.88s-9.14-1.29-13.11-3.88Z"/><path class="cls-36" d="M268.15,221.28c-3.93-3.27-6.06-8.07-6.4-14.39h16.86c.24,3.35,1.52,5.03,3.86,5.03,.86,0,1.58-.23,2.18-.7,.6-.47,.89-1.2,.89-2.18,0-1.37-.64-2.49-1.93-3.34-1.29-.85-3.29-1.83-6-2.93-3.24-1.32-5.92-2.61-8.04-3.88-2.12-1.26-3.94-3.1-5.47-5.52-1.53-2.42-2.24-5.52-2.22-9.32s.85-7.02,2.54-9.69c1.69-2.67,4-4.69,6.93-6.06,2.93-1.37,6.23-2.06,9.9-2.06,6.19,0,11.11,1.65,14.76,4.95,3.64,3.3,5.56,7.94,5.75,13.94h-17.08c-.05-1.65-.41-2.83-1.07-3.55-.67-.71-1.48-1.07-2.43-1.07-.67,0-1.21,.26-1.64,.78-.43,.52-.64,1.25-.64,2.18,0,1.32,.63,2.41,1.89,3.26,1.26,.85,3.27,1.89,6.04,3.09,3.19,1.38,5.82,2.69,7.9,3.96,2.07,1.27,3.87,3.02,5.39,5.28,1.52,2.25,2.29,5.09,2.29,8.49s-.76,6.78-2.29,9.61c-1.53,2.83-3.74,5.04-6.65,6.64-2.91,1.6-6.36,2.39-10.36,2.39-6.05,0-11.04-1.64-14.97-4.91Z"/><rect class="cls-36" x="307.99" y="167.23" width="15.86" height="58.38"/><path class="cls-36" d="M359.58,203.02l-4.57-16.24-4.57,16.24h9.15Zm3.86,13.77h-16.87l-2.5,8.82h-16.65l18.51-58.38h18.29l18.44,58.38h-16.72l-2.5-8.82Z"/></g><g><polygon class="cls-39" points="36.85 181.34 36.85 188.52 52.57 188.52 52.57 202.29 36.85 202.29 36.85 210.53 54.72 210.53 54.72 225.13 20.99 225.13 20.99 166.75 54.72 166.75 54.72 181.34 36.85 181.34"/><polygon class="cls-39" points="92.95 225.13 83.66 209.96 75.94 225.13 57.86 225.13 74.51 195.03 57.15 166.75 75.94 166.75 84.87 181.34 92.31 166.75 110.39 166.75 94.02 196.27 111.74 225.13 92.95 225.13"/><polygon class="cls-39" points="155.05 166.75 155.05 181.26 141.61 181.26 141.61 225.13 125.75 225.13 125.75 181.26 112.46 181.26 112.46 166.75 155.05 166.75"/><path class="cls-39" d="M175.2,191.98h6.29c1.52,0,2.67-.4,3.43-1.2,.76-.8,1.14-2.05,1.14-3.75,0-1.54-.39-2.75-1.18-3.63-.79-.88-1.92-1.32-3.39-1.32h-6.29v9.9Zm9.58,33.15l-9.5-20.95h-.07v20.95h-15.86v-58.38h23.58c4.1,0,7.6,.84,10.5,2.52,2.91,1.68,5.08,3.96,6.54,6.84,1.45,2.89,2.18,6.14,2.18,9.77,0,3.9-.94,7.37-2.82,10.39-1.88,3.02-4.59,5.2-8.11,6.51l11,22.35h-17.44Z"/><path class="cls-39" d="M239.16,205.13c1.72-2.34,2.57-5.48,2.57-9.44s-.86-7.19-2.57-9.52c-1.72-2.34-4.14-3.5-7.29-3.5s-5.65,1.17-7.36,3.5c-1.72,2.34-2.57,5.51-2.57,9.52s.86,7.11,2.57,9.44c1.72,2.34,4.17,3.5,7.36,3.5s5.57-1.17,7.29-3.5Zm-20.4,16.7c-3.98-2.58-7.14-6.16-9.47-10.72-2.33-4.56-3.5-9.7-3.5-15.42s1.17-10.86,3.5-15.42c2.33-4.56,5.49-8.12,9.47-10.68,3.98-2.56,8.35-3.83,13.11-3.83s9.12,1.28,13.08,3.83c3.95,2.56,7.08,6.12,9.4,10.68,2.31,4.56,3.47,9.7,3.47,15.42s-1.16,10.86-3.47,15.42c-2.31,4.56-5.46,8.14-9.43,10.72-3.98,2.59-8.33,3.88-13.04,3.88s-9.14-1.29-13.11-3.88Z"/><path class="cls-39" d="M268.35,220.8c-3.93-3.27-6.06-8.07-6.4-14.39h16.86c.24,3.35,1.52,5.03,3.86,5.03,.86,0,1.58-.23,2.18-.7,.6-.47,.89-1.2,.89-2.18,0-1.37-.64-2.49-1.93-3.34-1.29-.85-3.29-1.83-6-2.93-3.24-1.32-5.92-2.61-8.04-3.88-2.12-1.26-3.94-3.1-5.47-5.52-1.53-2.42-2.24-5.52-2.22-9.32s.85-7.02,2.54-9.69c1.69-2.67,4-4.69,6.93-6.06,2.93-1.37,6.23-2.06,9.9-2.06,6.19,0,11.11,1.65,14.76,4.95,3.64,3.3,5.56,7.94,5.75,13.94h-17.08c-.05-1.65-.41-2.83-1.07-3.55-.67-.71-1.48-1.07-2.43-1.07-.67,0-1.21,.26-1.64,.78-.43,.52-.64,1.25-.64,2.18,0,1.32,.63,2.41,1.89,3.26,1.26,.85,3.27,1.89,6.04,3.09,3.19,1.38,5.82,2.69,7.9,3.96,2.07,1.27,3.87,3.02,5.39,5.28,1.52,2.25,2.29,5.09,2.29,8.49s-.76,6.78-2.29,9.61c-1.53,2.83-3.74,5.04-6.65,6.64-2.91,1.6-6.36,2.39-10.36,2.39-6.05,0-11.04-1.64-14.97-4.91Z"/><rect class="cls-39" x="308.19" y="166.75" width="15.86" height="58.38"/><path class="cls-39" d="M359.78,202.53l-4.57-16.24-4.57,16.24h9.15Zm3.86,13.77h-16.87l-2.5,8.82h-16.65l18.51-58.38h18.29l18.44,58.38h-16.72l-2.5-8.82Z"/></g><g><polygon class="cls-27" points="37.05 180.86 37.05 188.04 52.77 188.04 52.77 201.81 37.05 201.81 37.05 210.05 54.92 210.05 54.92 224.65 21.19 224.65 21.19 166.27 54.92 166.27 54.92 180.86 37.05 180.86"/><polygon class="cls-27" points="93.15 224.65 83.86 209.47 76.14 224.65 58.06 224.65 74.71 194.55 57.35 166.27 76.14 166.27 85.07 180.86 92.51 166.27 110.58 166.27 94.22 195.79 111.94 224.65 93.15 224.65"/><polygon class="cls-27" points="155.25 166.27 155.25 180.78 141.81 180.78 141.81 224.65 125.95 224.65 125.95 180.78 112.66 180.78 112.66 166.27 155.25 166.27"/><path class="cls-27" d="M175.4,191.5h6.29c1.52,0,2.67-.4,3.43-1.2,.76-.8,1.14-2.05,1.14-3.75,0-1.54-.39-2.75-1.18-3.63-.79-.88-1.92-1.32-3.39-1.32h-6.29v9.9Zm9.58,33.15l-9.5-20.95h-.07v20.95h-15.86v-58.38h23.58c4.1,0,7.6,.84,10.5,2.52,2.91,1.68,5.08,3.96,6.54,6.84,1.45,2.89,2.18,6.14,2.18,9.77,0,3.9-.94,7.37-2.82,10.39-1.88,3.02-4.59,5.2-8.11,6.51l11,22.35h-17.44Z"/><path class="cls-27" d="M239.36,204.65c1.72-2.34,2.57-5.48,2.57-9.44s-.86-7.19-2.57-9.52c-1.72-2.34-4.14-3.5-7.29-3.5s-5.65,1.17-7.36,3.5c-1.72,2.34-2.57,5.51-2.57,9.52s.86,7.11,2.57,9.44c1.72,2.34,4.17,3.5,7.36,3.5s5.57-1.17,7.29-3.5Zm-20.4,16.7c-3.98-2.58-7.14-6.16-9.47-10.72-2.33-4.56-3.5-9.7-3.5-15.42s1.17-10.86,3.5-15.42c2.33-4.56,5.49-8.12,9.47-10.68,3.98-2.56,8.35-3.83,13.11-3.83s9.12,1.28,13.08,3.83c3.95,2.56,7.08,6.12,9.4,10.68,2.31,4.56,3.47,9.7,3.47,15.42s-1.16,10.86-3.47,15.42c-2.31,4.56-5.46,8.14-9.43,10.72-3.98,2.59-8.33,3.88-13.04,3.88s-9.14-1.29-13.11-3.88Z"/><path class="cls-27" d="M268.55,220.32c-3.93-3.27-6.06-8.07-6.4-14.39h16.86c.24,3.35,1.52,5.03,3.86,5.03,.86,0,1.58-.23,2.18-.7,.6-.47,.89-1.2,.89-2.18,0-1.37-.64-2.49-1.93-3.34-1.29-.85-3.29-1.83-6-2.93-3.24-1.32-5.92-2.61-8.04-3.88-2.12-1.26-3.94-3.1-5.47-5.52-1.53-2.42-2.24-5.52-2.22-9.32s.85-7.02,2.54-9.69c1.69-2.67,4-4.69,6.93-6.06,2.93-1.37,6.23-2.06,9.9-2.06,6.19,0,11.11,1.65,14.76,4.95,3.64,3.3,5.56,7.94,5.75,13.94h-17.08c-.05-1.65-.41-2.83-1.07-3.55-.67-.71-1.48-1.07-2.43-1.07-.67,0-1.21,.26-1.64,.78-.43,.52-.64,1.25-.64,2.18,0,1.32,.63,2.41,1.89,3.26,1.26,.85,3.27,1.89,6.04,3.09,3.19,1.38,5.82,2.69,7.9,3.96,2.07,1.27,3.87,3.02,5.39,5.28,1.52,2.25,2.29,5.09,2.29,8.49s-.76,6.78-2.29,9.61c-1.53,2.83-3.74,5.04-6.65,6.64-2.91,1.6-6.36,2.39-10.36,2.39-6.05,0-11.04-1.64-14.97-4.91Z"/><rect class="cls-27" x="308.39" y="166.27" width="15.86" height="58.38"/><path class="cls-27" d="M359.98,202.05l-4.57-16.24-4.57,16.24h9.15Zm3.86,13.77h-16.87l-2.5,8.82h-16.65l18.51-58.38h18.29l18.44,58.38h-16.72l-2.5-8.82Z"/></g><g><polygon class="cls-26" points="37.25 180.38 37.25 187.55 52.97 187.55 52.97 201.32 37.25 201.32 37.25 209.57 55.12 209.57 55.12 224.17 21.39 224.17 21.39 165.78 55.12 165.78 55.12 180.38 37.25 180.38"/><polygon class="cls-26" points="93.35 224.17 84.06 208.99 76.34 224.17 58.26 224.17 74.91 194.07 57.55 165.78 76.34 165.78 85.27 180.38 92.7 165.78 110.78 165.78 94.42 195.3 112.14 224.17 93.35 224.17"/><polygon class="cls-26" points="155.45 165.78 155.45 180.3 142.01 180.3 142.01 224.17 126.15 224.17 126.15 180.3 112.86 180.3 112.86 165.78 155.45 165.78"/><path class="cls-26" d="M175.6,191.02h6.29c1.52,0,2.67-.4,3.43-1.2,.76-.8,1.14-2.05,1.14-3.75,0-1.54-.39-2.75-1.18-3.63-.79-.88-1.92-1.32-3.39-1.32h-6.29v9.9Zm9.58,33.15l-9.5-20.95h-.07v20.95h-15.86v-58.38h23.58c4.1,0,7.6,.84,10.5,2.52,2.91,1.68,5.08,3.96,6.54,6.84,1.45,2.89,2.18,6.14,2.18,9.77,0,3.9-.94,7.37-2.82,10.39-1.88,3.02-4.59,5.2-8.11,6.51l11,22.35h-17.44Z"/><path class="cls-26" d="M239.56,204.17c1.72-2.34,2.57-5.48,2.57-9.44s-.86-7.19-2.57-9.52c-1.72-2.34-4.14-3.5-7.29-3.5s-5.65,1.17-7.36,3.5c-1.72,2.34-2.57,5.51-2.57,9.52s.86,7.11,2.57,9.44c1.72,2.34,4.17,3.5,7.36,3.5s5.57-1.17,7.29-3.5Zm-20.4,16.7c-3.98-2.58-7.14-6.16-9.47-10.72-2.33-4.56-3.5-9.7-3.5-15.42s1.17-10.86,3.5-15.42c2.33-4.56,5.49-8.12,9.47-10.68,3.98-2.56,8.35-3.83,13.11-3.83s9.12,1.28,13.08,3.83c3.95,2.56,7.08,6.12,9.4,10.68,2.31,4.56,3.47,9.7,3.47,15.42s-1.16,10.86-3.47,15.42c-2.31,4.56-5.46,8.14-9.43,10.72-3.98,2.59-8.33,3.88-13.04,3.88s-9.14-1.29-13.11-3.88Z"/><path class="cls-26" d="M268.75,219.84c-3.93-3.27-6.06-8.07-6.4-14.39h16.86c.24,3.35,1.52,5.03,3.86,5.03,.86,0,1.58-.23,2.18-.7,.6-.47,.89-1.2,.89-2.18,0-1.37-.64-2.49-1.93-3.34-1.29-.85-3.29-1.83-6-2.93-3.24-1.32-5.92-2.61-8.04-3.88-2.12-1.26-3.94-3.1-5.47-5.52-1.53-2.42-2.24-5.52-2.22-9.32s.85-7.02,2.54-9.69c1.69-2.67,4-4.69,6.93-6.06,2.93-1.37,6.23-2.06,9.9-2.06,6.19,0,11.11,1.65,14.76,4.95,3.64,3.3,5.56,7.94,5.75,13.94h-17.08c-.05-1.65-.41-2.83-1.07-3.55-.67-.71-1.48-1.07-2.43-1.07-.67,0-1.21,.26-1.64,.78-.43,.52-.64,1.25-.64,2.18,0,1.32,.63,2.41,1.89,3.26,1.26,.85,3.27,1.89,6.04,3.09,3.19,1.38,5.82,2.69,7.9,3.96,2.07,1.27,3.87,3.02,5.39,5.28,1.52,2.25,2.29,5.09,2.29,8.49s-.76,6.78-2.29,9.61c-1.53,2.83-3.74,5.04-6.65,6.64-2.91,1.6-6.36,2.39-10.36,2.39-6.05,0-11.04-1.64-14.97-4.91Z"/><rect class="cls-26" x="308.59" y="165.78" width="15.86" height="58.38"/><path class="cls-26" d="M360.18,201.57l-4.57-16.24-4.57,16.24h9.15Zm3.86,13.77h-16.87l-2.5,8.82h-16.65l18.51-58.38h18.29l18.44,58.38h-16.72l-2.5-8.82Z"/></g><g><polygon class="cls-34" points="37.45 179.9 37.45 187.07 53.17 187.07 53.17 200.84 37.45 200.84 37.45 209.09 55.32 209.09 55.32 223.68 21.59 223.68 21.59 165.3 55.32 165.3 55.32 179.9 37.45 179.9"/><polygon class="cls-34" points="93.55 223.68 84.26 208.51 76.54 223.68 58.46 223.68 75.11 193.59 57.74 165.3 76.54 165.3 85.47 179.9 92.9 165.3 110.98 165.3 94.62 194.82 112.34 223.68 93.55 223.68"/><polygon class="cls-34" points="155.65 165.3 155.65 179.82 142.21 179.82 142.21 223.68 126.35 223.68 126.35 179.82 113.05 179.82 113.05 165.3 155.65 165.3"/><path class="cls-34" d="M175.8,190.54h6.29c1.52,0,2.67-.4,3.43-1.2,.76-.8,1.14-2.05,1.14-3.75,0-1.54-.39-2.75-1.18-3.63-.79-.88-1.92-1.32-3.39-1.32h-6.29v9.9Zm9.58,33.15l-9.5-20.95h-.07v20.95h-15.86v-58.38h23.58c4.1,0,7.6,.84,10.5,2.52,2.91,1.68,5.08,3.96,6.54,6.84,1.45,2.89,2.18,6.14,2.18,9.77,0,3.9-.94,7.37-2.82,10.39-1.88,3.02-4.59,5.2-8.11,6.51l11,22.35h-17.44Z"/><path class="cls-34" d="M239.75,203.69c1.72-2.34,2.57-5.48,2.57-9.44s-.86-7.19-2.57-9.52c-1.72-2.34-4.14-3.5-7.29-3.5s-5.65,1.17-7.36,3.5c-1.72,2.34-2.57,5.51-2.57,9.52s.86,7.11,2.57,9.44c1.72,2.34,4.17,3.5,7.36,3.5s5.57-1.17,7.29-3.5Zm-20.4,16.7c-3.98-2.58-7.14-6.16-9.47-10.72-2.33-4.56-3.5-9.7-3.5-15.42s1.17-10.86,3.5-15.42c2.33-4.56,5.49-8.12,9.47-10.68,3.98-2.56,8.35-3.83,13.11-3.83s9.12,1.28,13.08,3.83c3.95,2.56,7.08,6.12,9.4,10.68,2.31,4.56,3.47,9.7,3.47,15.42s-1.16,10.86-3.47,15.42c-2.31,4.56-5.46,8.14-9.43,10.72-3.98,2.59-8.33,3.88-13.04,3.88s-9.14-1.29-13.11-3.88Z"/><path class="cls-34" d="M268.95,219.35c-3.93-3.27-6.06-8.07-6.4-14.39h16.86c.24,3.35,1.52,5.03,3.86,5.03,.86,0,1.58-.23,2.18-.7,.6-.47,.89-1.2,.89-2.18,0-1.37-.64-2.49-1.93-3.34-1.29-.85-3.29-1.83-6-2.93-3.24-1.32-5.92-2.61-8.04-3.88-2.12-1.26-3.94-3.1-5.47-5.52-1.53-2.42-2.24-5.52-2.22-9.32s.85-7.02,2.54-9.69c1.69-2.67,4-4.69,6.93-6.06,2.93-1.37,6.23-2.06,9.9-2.06,6.19,0,11.11,1.65,14.76,4.95,3.64,3.3,5.56,7.94,5.75,13.94h-17.08c-.05-1.65-.41-2.83-1.07-3.55-.67-.71-1.48-1.07-2.43-1.07-.67,0-1.21,.26-1.64,.78-.43,.52-.64,1.25-.64,2.19,0,1.32,.63,2.41,1.89,3.26,1.26,.85,3.27,1.89,6.04,3.09,3.19,1.38,5.82,2.69,7.9,3.96,2.07,1.27,3.87,3.02,5.39,5.28,1.52,2.25,2.29,5.09,2.29,8.49s-.76,6.78-2.29,9.61c-1.53,2.83-3.74,5.04-6.65,6.64-2.91,1.6-6.36,2.39-10.36,2.39-6.05,0-11.04-1.64-14.97-4.91Z"/><rect class="cls-34" x="308.78" y="165.3" width="15.86" height="58.38"/><path class="cls-34" d="M360.38,201.09l-4.57-16.24-4.57,16.24h9.15Zm3.86,13.77h-16.87l-2.5,8.82h-16.65l18.51-58.38h18.29l18.44,58.38h-16.72l-2.5-8.82Z"/></g><g><polygon class="cls-16" points="37.65 179.42 37.65 186.59 53.37 186.59 53.37 200.36 37.65 200.36 37.65 208.61 55.51 208.61 55.51 223.2 21.78 223.2 21.78 164.82 55.51 164.82 55.51 179.42 37.65 179.42"/><polygon class="cls-16" points="93.75 223.2 84.46 208.03 76.74 223.2 58.66 223.2 75.31 193.1 57.94 164.82 76.74 164.82 85.67 179.42 93.1 164.82 111.18 164.82 94.82 194.34 112.54 223.2 93.75 223.2"/><polygon class="cls-16" points="155.84 164.82 155.84 179.33 142.41 179.33 142.41 223.2 126.55 223.2 126.55 179.33 113.25 179.33 113.25 164.82 155.84 164.82"/><path class="cls-16" d="M176,190.05h6.29c1.52,0,2.67-.4,3.43-1.2,.76-.8,1.14-2.05,1.14-3.75,0-1.54-.39-2.75-1.18-3.63-.79-.88-1.92-1.32-3.39-1.32h-6.29v9.9Zm9.58,33.15l-9.5-20.95h-.07v20.95h-15.86v-58.38h23.58c4.1,0,7.6,.84,10.5,2.52,2.91,1.68,5.08,3.96,6.54,6.84,1.45,2.89,2.18,6.14,2.18,9.77,0,3.9-.94,7.37-2.82,10.39-1.88,3.02-4.59,5.2-8.11,6.51l11,22.35h-17.44Z"/><path class="cls-16" d="M239.95,203.21c1.72-2.34,2.57-5.48,2.57-9.44s-.86-7.19-2.57-9.52c-1.72-2.34-4.14-3.5-7.29-3.5s-5.65,1.17-7.36,3.5c-1.72,2.34-2.57,5.51-2.57,9.52s.86,7.11,2.57,9.44c1.72,2.34,4.17,3.5,7.36,3.5s5.57-1.17,7.29-3.5Zm-20.4,16.7c-3.98-2.58-7.14-6.16-9.47-10.72-2.33-4.56-3.5-9.7-3.5-15.42s1.17-10.86,3.5-15.42c2.33-4.56,5.49-8.12,9.47-10.68,3.98-2.56,8.35-3.83,13.11-3.83s9.12,1.28,13.08,3.83c3.95,2.56,7.08,6.12,9.4,10.68,2.31,4.56,3.47,9.7,3.47,15.42s-1.16,10.86-3.47,15.42c-2.31,4.56-5.46,8.14-9.43,10.72-3.98,2.59-8.33,3.88-13.04,3.88s-9.14-1.29-13.11-3.88Z"/><path class="cls-16" d="M269.14,218.87c-3.93-3.27-6.06-8.07-6.4-14.39h16.86c.24,3.35,1.52,5.03,3.86,5.03,.86,0,1.58-.23,2.18-.7,.6-.47,.89-1.2,.89-2.18,0-1.37-.64-2.49-1.93-3.34-1.29-.85-3.29-1.83-6-2.93-3.24-1.32-5.92-2.61-8.04-3.88-2.12-1.26-3.94-3.1-5.47-5.52-1.53-2.42-2.24-5.52-2.22-9.32s.85-7.02,2.54-9.69c1.69-2.67,4-4.69,6.93-6.06,2.93-1.37,6.23-2.06,9.9-2.06,6.19,0,11.11,1.65,14.76,4.95,3.64,3.3,5.56,7.94,5.75,13.94h-17.08c-.05-1.65-.41-2.83-1.07-3.55-.67-.71-1.48-1.07-2.43-1.07-.67,0-1.21,.26-1.64,.78-.43,.52-.64,1.25-.64,2.19,0,1.32,.63,2.41,1.89,3.26,1.26,.85,3.27,1.89,6.04,3.09,3.19,1.38,5.82,2.69,7.9,3.96,2.07,1.27,3.87,3.02,5.39,5.28,1.52,2.25,2.29,5.09,2.29,8.49s-.76,6.78-2.29,9.61c-1.53,2.83-3.74,5.04-6.65,6.64-2.91,1.6-6.36,2.39-10.36,2.39-6.05,0-11.04-1.64-14.97-4.91Z"/><rect class="cls-16" x="308.98" y="164.82" width="15.86" height="58.38"/><path class="cls-16" d="M360.58,200.61l-4.57-16.24-4.57,16.24h9.15Zm3.86,13.77h-16.87l-2.5,8.82h-16.65l18.51-58.38h18.29l18.44,58.38h-16.72l-2.5-8.82Z"/></g><g><polygon class="cls-32" points="37.85 178.93 37.85 186.11 53.57 186.11 53.57 199.88 37.85 199.88 37.85 208.13 55.71 208.13 55.71 222.72 21.98 222.72 21.98 164.34 55.71 164.34 55.71 178.93 37.85 178.93"/><polygon class="cls-32" points="93.94 222.72 84.65 207.55 76.94 222.72 58.86 222.72 75.51 192.62 58.14 164.34 76.94 164.34 85.87 178.93 93.3 164.34 111.38 164.34 95.02 193.86 112.74 222.72 93.94 222.72"/><polygon class="cls-32" points="156.04 164.34 156.04 178.85 142.61 178.85 142.61 222.72 126.74 222.72 126.74 178.85 113.45 178.85 113.45 164.34 156.04 164.34"/><path class="cls-32" d="M176.19,189.57h6.29c1.52,0,2.67-.4,3.43-1.2,.76-.8,1.14-2.05,1.14-3.75,0-1.54-.39-2.75-1.18-3.63-.79-.88-1.92-1.32-3.39-1.32h-6.29v9.9Zm9.58,33.15l-9.5-20.95h-.07v20.95h-15.86v-58.38h23.58c4.1,0,7.6,.84,10.5,2.52,2.91,1.68,5.08,3.96,6.54,6.84,1.45,2.89,2.18,6.14,2.18,9.77,0,3.9-.94,7.37-2.82,10.39-1.88,3.02-4.59,5.2-8.11,6.51l11,22.35h-17.44Z"/><path class="cls-32" d="M240.15,202.72c1.72-2.34,2.57-5.48,2.57-9.44s-.86-7.19-2.57-9.52c-1.72-2.34-4.14-3.5-7.29-3.5s-5.65,1.17-7.36,3.5c-1.72,2.34-2.57,5.51-2.57,9.52s.86,7.11,2.57,9.44c1.72,2.34,4.17,3.5,7.36,3.5s5.57-1.17,7.29-3.5Zm-20.4,16.7c-3.98-2.58-7.14-6.16-9.47-10.72-2.33-4.56-3.5-9.7-3.5-15.42s1.17-10.86,3.5-15.42c2.33-4.56,5.49-8.12,9.47-10.68,3.98-2.56,8.35-3.83,13.11-3.83s9.12,1.28,13.08,3.83c3.95,2.56,7.08,6.12,9.4,10.68,2.31,4.56,3.47,9.7,3.47,15.42s-1.16,10.86-3.47,15.42c-2.31,4.56-5.46,8.14-9.43,10.72-3.98,2.59-8.33,3.88-13.04,3.88s-9.14-1.29-13.11-3.88Z"/><path class="cls-32" d="M269.34,218.39c-3.93-3.27-6.06-8.07-6.4-14.39h16.86c.24,3.35,1.52,5.03,3.86,5.03,.86,0,1.58-.23,2.18-.7,.6-.47,.89-1.2,.89-2.18,0-1.37-.64-2.49-1.93-3.34-1.29-.85-3.29-1.83-6-2.93-3.24-1.32-5.92-2.61-8.04-3.88-2.12-1.26-3.94-3.1-5.47-5.52-1.53-2.42-2.24-5.52-2.22-9.32s.85-7.02,2.54-9.69c1.69-2.67,4-4.69,6.93-6.06,2.93-1.37,6.23-2.06,9.9-2.06,6.19,0,11.11,1.65,14.76,4.95,3.64,3.3,5.56,7.94,5.75,13.94h-17.08c-.05-1.65-.41-2.83-1.07-3.55-.67-.71-1.48-1.07-2.43-1.07-.67,0-1.21,.26-1.64,.78-.43,.52-.64,1.25-.64,2.19,0,1.32,.63,2.41,1.89,3.26,1.26,.85,3.27,1.89,6.04,3.09,3.19,1.38,5.82,2.69,7.9,3.96,2.07,1.27,3.87,3.02,5.39,5.28,1.52,2.25,2.29,5.09,2.29,8.49s-.76,6.78-2.29,9.61c-1.53,2.83-3.74,5.04-6.65,6.64-2.91,1.6-6.36,2.39-10.36,2.39-6.05,0-11.04-1.64-14.97-4.91Z"/><rect class="cls-32" x="309.18" y="164.34" width="15.86" height="58.38"/><path class="cls-32" d="M360.78,200.13l-4.57-16.24-4.57,16.24h9.15Zm3.86,13.77h-16.87l-2.5,8.82h-16.65l18.51-58.38h18.29l18.44,58.38h-16.72l-2.5-8.82Z"/></g><g><polygon class="cls-20" points="38.05 178.45 38.05 185.63 53.77 185.63 53.77 199.4 38.05 199.4 38.05 207.64 55.91 207.64 55.91 222.24 22.18 222.24 22.18 163.86 55.91 163.86 55.91 178.45 38.05 178.45"/><polygon class="cls-20" points="94.14 222.24 84.85 207.07 77.14 222.24 59.06 222.24 75.71 192.14 58.34 163.86 77.14 163.86 86.07 178.45 93.5 163.86 111.58 163.86 95.22 193.38 112.94 222.24 94.14 222.24"/><polygon class="cls-20" points="156.24 163.86 156.24 178.37 142.81 178.37 142.81 222.24 126.94 222.24 126.94 178.37 113.65 178.37 113.65 163.86 156.24 163.86"/><path class="cls-20" d="M176.39,189.09h6.29c1.52,0,2.67-.4,3.43-1.2,.76-.8,1.14-2.05,1.14-3.75,0-1.54-.39-2.75-1.18-3.63-.79-.88-1.92-1.32-3.39-1.32h-6.29v9.9Zm9.58,33.15l-9.5-20.95h-.07v20.95h-15.86v-58.38h23.58c4.1,0,7.6,.84,10.5,2.52,2.91,1.68,5.08,3.96,6.54,6.84,1.45,2.89,2.18,6.14,2.18,9.77,0,3.9-.94,7.37-2.82,10.39-1.88,3.02-4.59,5.2-8.11,6.51l11,22.35h-17.44Z"/><path class="cls-20" d="M240.35,202.24c1.72-2.34,2.57-5.48,2.57-9.44s-.86-7.19-2.57-9.52c-1.72-2.34-4.14-3.5-7.29-3.5s-5.65,1.17-7.36,3.5c-1.72,2.34-2.57,5.51-2.57,9.52s.86,7.11,2.57,9.44c1.72,2.34,4.17,3.5,7.36,3.5s5.57-1.17,7.29-3.5Zm-20.4,16.7c-3.98-2.58-7.14-6.16-9.47-10.72-2.33-4.56-3.5-9.7-3.5-15.42s1.17-10.86,3.5-15.42c2.33-4.56,5.49-8.12,9.47-10.68,3.98-2.56,8.35-3.83,13.11-3.83s9.12,1.28,13.08,3.83c3.95,2.56,7.08,6.12,9.4,10.68,2.31,4.56,3.47,9.7,3.47,15.42s-1.16,10.86-3.47,15.42c-2.31,4.56-5.46,8.14-9.43,10.72-3.98,2.59-8.33,3.88-13.04,3.88s-9.14-1.29-13.11-3.88Z"/><path class="cls-20" d="M269.54,217.91c-3.93-3.27-6.06-8.07-6.4-14.39h16.86c.24,3.35,1.52,5.03,3.86,5.03,.86,0,1.58-.23,2.18-.7,.6-.47,.89-1.2,.89-2.18,0-1.37-.64-2.49-1.93-3.34-1.29-.85-3.29-1.83-6-2.93-3.24-1.32-5.92-2.61-8.04-3.88-2.12-1.26-3.94-3.1-5.47-5.52-1.53-2.42-2.24-5.52-2.22-9.32s.85-7.02,2.54-9.69c1.69-2.67,4-4.69,6.93-6.06,2.93-1.37,6.23-2.06,9.9-2.06,6.19,0,11.11,1.65,14.76,4.95,3.64,3.3,5.56,7.94,5.75,13.94h-17.08c-.05-1.65-.41-2.83-1.07-3.55-.67-.71-1.48-1.07-2.43-1.07-.67,0-1.21,.26-1.64,.78-.43,.52-.64,1.25-.64,2.19,0,1.32,.63,2.41,1.89,3.26,1.26,.85,3.27,1.89,6.04,3.09,3.19,1.38,5.82,2.69,7.9,3.96,2.07,1.27,3.87,3.02,5.39,5.28,1.52,2.25,2.29,5.09,2.29,8.49s-.76,6.78-2.29,9.61c-1.53,2.83-3.74,5.04-6.65,6.64-2.91,1.6-6.36,2.39-10.36,2.39-6.05,0-11.04-1.64-14.97-4.91Z"/><rect class="cls-20" x="309.38" y="163.86" width="15.86" height="58.38"/><path class="cls-20" d="M360.97,199.64l-4.57-16.24-4.57,16.24h9.15Zm3.86,13.77h-16.87l-2.5,8.82h-16.65l18.51-58.38h18.29l18.44,58.38h-16.72l-2.5-8.82Z"/></g><g><polygon class="cls-25" points="38.25 177.97 38.25 185.15 53.97 185.15 53.97 198.92 38.25 198.92 38.25 207.16 56.11 207.16 56.11 221.76 22.38 221.76 22.38 163.38 56.11 163.38 56.11 177.97 38.25 177.97"/><polygon class="cls-25" points="94.34 221.76 85.05 206.58 77.33 221.76 59.25 221.76 75.91 191.66 58.54 163.38 77.33 163.38 86.27 177.97 93.7 163.38 111.78 163.38 95.41 192.9 113.14 221.76 94.34 221.76"/><polygon class="cls-25" points="156.44 163.38 156.44 177.89 143.01 177.89 143.01 221.76 127.14 221.76 127.14 177.89 113.85 177.89 113.85 163.38 156.44 163.38"/><path class="cls-25" d="M176.59,188.61h6.29c1.52,0,2.67-.4,3.43-1.2,.76-.8,1.14-2.05,1.14-3.75,0-1.54-.39-2.75-1.18-3.63-.79-.88-1.92-1.32-3.39-1.32h-6.29v9.9Zm9.58,33.15l-9.5-20.95h-.07v20.95h-15.86v-58.38h23.58c4.1,0,7.6,.84,10.5,2.52,2.91,1.68,5.08,3.96,6.54,6.84,1.45,2.89,2.18,6.14,2.18,9.77,0,3.9-.94,7.37-2.82,10.39-1.88,3.02-4.59,5.2-8.11,6.51l11,22.35h-17.44Z"/><path class="cls-25" d="M240.55,201.76c1.72-2.34,2.57-5.48,2.57-9.44s-.86-7.19-2.57-9.52c-1.72-2.34-4.14-3.5-7.29-3.5s-5.65,1.17-7.36,3.5c-1.72,2.34-2.57,5.51-2.57,9.52s.86,7.11,2.57,9.44c1.72,2.34,4.17,3.5,7.36,3.5s5.57-1.17,7.29-3.5Zm-20.4,16.7c-3.98-2.58-7.14-6.16-9.47-10.72-2.33-4.56-3.5-9.7-3.5-15.42s1.17-10.86,3.5-15.42c2.33-4.56,5.49-8.12,9.47-10.68,3.98-2.56,8.35-3.83,13.11-3.83s9.12,1.28,13.08,3.83c3.95,2.56,7.08,6.12,9.4,10.68,2.31,4.56,3.47,9.7,3.47,15.42s-1.16,10.86-3.47,15.42c-2.31,4.56-5.46,8.14-9.43,10.72-3.98,2.59-8.33,3.88-13.04,3.88s-9.14-1.29-13.11-3.88Z"/><path class="cls-25" d="M269.74,217.43c-3.93-3.27-6.06-8.07-6.4-14.39h16.86c.24,3.35,1.52,5.03,3.86,5.03,.86,0,1.58-.23,2.18-.7,.6-.47,.89-1.2,.89-2.18,0-1.37-.64-2.49-1.93-3.34-1.29-.85-3.29-1.83-6-2.93-3.24-1.32-5.92-2.61-8.04-3.88-2.12-1.26-3.94-3.1-5.47-5.52-1.53-2.42-2.24-5.52-2.22-9.32s.85-7.02,2.54-9.69c1.69-2.67,4-4.69,6.93-6.06,2.93-1.37,6.23-2.06,9.9-2.06,6.19,0,11.11,1.65,14.76,4.95,3.64,3.3,5.56,7.94,5.75,13.94h-17.08c-.05-1.65-.41-2.83-1.07-3.55-.67-.71-1.48-1.07-2.43-1.07-.67,0-1.21,.26-1.64,.78-.43,.52-.64,1.25-.64,2.19,0,1.32,.63,2.41,1.89,3.26,1.26,.85,3.27,1.89,6.04,3.09,3.19,1.38,5.82,2.69,7.9,3.96,2.07,1.27,3.87,3.02,5.39,5.28,1.52,2.25,2.29,5.09,2.29,8.49s-.76,6.78-2.29,9.61c-1.53,2.83-3.74,5.04-6.65,6.64-2.91,1.6-6.36,2.39-10.36,2.39-6.05,0-11.04-1.64-14.97-4.91Z"/><rect class="cls-25" x="309.58" y="163.38" width="15.86" height="58.38"/><path class="cls-25" d="M361.17,199.16l-4.57-16.24-4.57,16.24h9.15Zm3.86,13.77h-16.87l-2.5,8.82h-16.65l18.51-58.38h18.29l18.44,58.38h-16.72l-2.5-8.82Z"/></g><g><polygon class="cls-35" points="38.44 177.49 38.44 184.66 54.17 184.66 54.17 198.43 38.44 198.43 38.44 206.68 56.31 206.68 56.31 221.28 22.58 221.28 22.58 162.89 56.31 162.89 56.31 177.49 38.44 177.49"/><polygon class="cls-35" points="94.54 221.28 85.25 206.1 77.53 221.28 59.45 221.28 76.1 191.18 58.74 162.89 77.53 162.89 86.47 177.49 93.9 162.89 111.98 162.89 95.61 192.41 113.34 221.28 94.54 221.28"/><polygon class="cls-35" points="156.64 162.89 156.64 177.41 143.21 177.41 143.21 221.28 127.34 221.28 127.34 177.41 114.05 177.41 114.05 162.89 156.64 162.89"/><path class="cls-35" d="M176.79,188.13h6.29c1.52,0,2.67-.4,3.43-1.2,.76-.8,1.14-2.05,1.14-3.75,0-1.54-.39-2.75-1.18-3.63-.79-.88-1.92-1.32-3.39-1.32h-6.29v9.9Zm9.58,33.15l-9.5-20.95h-.07v20.95h-15.86v-58.38h23.58c4.1,0,7.6,.84,10.5,2.52,2.91,1.68,5.08,3.96,6.54,6.84,1.45,2.89,2.18,6.14,2.18,9.77,0,3.9-.94,7.37-2.82,10.39-1.88,3.02-4.59,5.2-8.11,6.51l11,22.35h-17.44Z"/><path class="cls-35" d="M240.75,201.28c1.72-2.34,2.57-5.48,2.57-9.44s-.86-7.19-2.57-9.52c-1.72-2.34-4.14-3.5-7.29-3.5s-5.65,1.17-7.36,3.5c-1.72,2.34-2.57,5.51-2.57,9.52s.86,7.11,2.57,9.44c1.72,2.34,4.17,3.5,7.36,3.5s5.57-1.17,7.29-3.5Zm-20.4,16.7c-3.98-2.58-7.14-6.16-9.47-10.72-2.33-4.56-3.5-9.7-3.5-15.42s1.17-10.86,3.5-15.42c2.33-4.56,5.49-8.12,9.47-10.68,3.98-2.56,8.35-3.83,13.11-3.83s9.12,1.28,13.08,3.83c3.95,2.56,7.08,6.12,9.4,10.68,2.31,4.56,3.47,9.7,3.47,15.42s-1.16,10.86-3.47,15.42c-2.31,4.56-5.46,8.14-9.43,10.72-3.98,2.59-8.33,3.88-13.04,3.88s-9.14-1.29-13.11-3.88Z"/><path class="cls-35" d="M269.94,216.95c-3.93-3.27-6.06-8.07-6.4-14.39h16.86c.24,3.35,1.52,5.03,3.86,5.03,.86,0,1.58-.23,2.18-.7,.6-.47,.89-1.2,.89-2.18,0-1.37-.64-2.49-1.93-3.34-1.29-.85-3.29-1.83-6-2.93-3.24-1.32-5.92-2.61-8.04-3.88-2.12-1.26-3.94-3.1-5.47-5.52-1.53-2.42-2.24-5.52-2.22-9.32s.85-7.02,2.54-9.69c1.69-2.67,4-4.69,6.93-6.06,2.93-1.37,6.23-2.06,9.9-2.06,6.19,0,11.11,1.65,14.76,4.95,3.64,3.3,5.56,7.94,5.75,13.94h-17.08c-.05-1.65-.41-2.83-1.07-3.55-.67-.71-1.48-1.07-2.43-1.07-.67,0-1.21,.26-1.64,.78-.43,.52-.64,1.25-.64,2.19,0,1.32,.63,2.41,1.89,3.26,1.26,.85,3.27,1.89,6.04,3.09,3.19,1.38,5.82,2.69,7.9,3.96,2.07,1.27,3.87,3.02,5.39,5.28,1.52,2.25,2.29,5.09,2.29,8.49s-.76,6.78-2.29,9.61c-1.53,2.83-3.74,5.04-6.65,6.64-2.91,1.6-6.36,2.39-10.36,2.39-6.05,0-11.04-1.64-14.97-4.91Z"/><rect class="cls-35" x="309.78" y="162.89" width="15.86" height="58.38"/><path class="cls-35" d="M361.37,198.68l-4.57-16.24-4.57,16.24h9.15Zm3.86,13.77h-16.87l-2.5,8.82h-16.65l18.51-58.38h18.29l18.44,58.38h-16.72l-2.5-8.82Z"/></g><g><polygon class="cls-17" points="38.64 177.01 38.64 184.18 54.36 184.18 54.36 197.95 38.64 197.95 38.64 206.2 56.51 206.2 56.51 220.79 22.78 220.79 22.78 162.41 56.51 162.41 56.51 177.01 38.64 177.01"/><polygon class="cls-17" points="94.74 220.79 85.45 205.62 77.73 220.79 59.65 220.79 76.3 190.7 58.94 162.41 77.73 162.41 86.66 177.01 94.1 162.41 112.18 162.41 95.81 191.93 113.53 220.79 94.74 220.79"/><polygon class="cls-17" points="156.84 162.41 156.84 176.93 143.4 176.93 143.4 220.79 127.54 220.79 127.54 176.93 114.25 176.93 114.25 162.41 156.84 162.41"/><path class="cls-17" d="M176.99,187.65h6.29c1.52,0,2.67-.4,3.43-1.2,.76-.8,1.14-2.05,1.14-3.75,0-1.54-.39-2.75-1.18-3.63-.79-.88-1.92-1.32-3.39-1.32h-6.29v9.89Zm9.58,33.15l-9.5-20.95h-.07v20.95h-15.86v-58.38h23.58c4.1,0,7.6,.84,10.5,2.52,2.91,1.68,5.08,3.96,6.54,6.84,1.45,2.89,2.18,6.14,2.18,9.77,0,3.9-.94,7.37-2.82,10.39-1.88,3.02-4.59,5.2-8.11,6.51l11,22.35h-17.44Z"/><path class="cls-17" d="M240.95,200.8c1.72-2.34,2.57-5.48,2.57-9.44s-.86-7.19-2.57-9.52c-1.72-2.34-4.14-3.5-7.29-3.5s-5.65,1.17-7.36,3.5c-1.72,2.34-2.57,5.51-2.57,9.52s.86,7.11,2.57,9.44c1.72,2.34,4.17,3.5,7.36,3.5s5.57-1.17,7.29-3.5Zm-20.4,16.7c-3.98-2.58-7.14-6.16-9.47-10.72-2.33-4.56-3.5-9.7-3.5-15.42s1.17-10.86,3.5-15.42c2.33-4.56,5.49-8.12,9.47-10.68,3.98-2.56,8.35-3.83,13.11-3.83s9.12,1.28,13.08,3.83c3.95,2.56,7.08,6.12,9.4,10.68,2.31,4.56,3.47,9.7,3.47,15.42s-1.16,10.86-3.47,15.42c-2.31,4.56-5.46,8.14-9.43,10.72-3.98,2.59-8.33,3.88-13.04,3.88s-9.14-1.29-13.11-3.88Z"/><path class="cls-17" d="M270.14,216.46c-3.93-3.27-6.06-8.07-6.4-14.39h16.86c.24,3.35,1.52,5.03,3.86,5.03,.86,0,1.58-.23,2.18-.7,.6-.47,.89-1.2,.89-2.18,0-1.37-.64-2.49-1.93-3.34-1.29-.85-3.29-1.83-6-2.93-3.24-1.32-5.92-2.61-8.04-3.88-2.12-1.26-3.94-3.1-5.47-5.52-1.53-2.42-2.24-5.52-2.22-9.32s.85-7.02,2.54-9.69c1.69-2.67,4-4.69,6.93-6.06,2.93-1.37,6.23-2.06,9.9-2.06,6.19,0,11.11,1.65,14.76,4.95,3.64,3.3,5.56,7.94,5.75,13.94h-17.08c-.05-1.65-.41-2.83-1.07-3.55-.67-.71-1.48-1.07-2.43-1.07-.67,0-1.21,.26-1.64,.78-.43,.52-.64,1.25-.64,2.19,0,1.32,.63,2.41,1.89,3.26,1.26,.85,3.27,1.89,6.04,3.09,3.19,1.38,5.82,2.69,7.9,3.96,2.07,1.27,3.87,3.02,5.39,5.28,1.52,2.25,2.29,5.09,2.29,8.49s-.76,6.78-2.29,9.61c-1.53,2.83-3.74,5.04-6.65,6.64-2.91,1.6-6.36,2.39-10.36,2.39-6.05,0-11.04-1.64-14.97-4.91Z"/><rect class="cls-17" x="309.98" y="162.41" width="15.86" height="58.38"/><path class="cls-17" d="M361.57,198.2l-4.57-16.24-4.57,16.24h9.15Zm3.86,13.77h-16.87l-2.5,8.82h-16.65l18.51-58.38h18.29l18.44,58.38h-16.72l-2.5-8.82Z"/></g><g><polygon class="cls-18" points="38.84 176.53 38.84 183.7 54.56 183.7 54.56 197.47 38.84 197.47 38.84 205.72 56.71 205.72 56.71 220.31 22.98 220.31 22.98 161.93 56.71 161.93 56.71 176.53 38.84 176.53"/><polygon class="cls-18" points="94.94 220.31 85.65 205.14 77.93 220.31 59.85 220.31 76.5 190.21 59.14 161.93 77.93 161.93 86.86 176.53 94.3 161.93 112.38 161.93 96.01 191.45 113.73 220.31 94.94 220.31"/><polygon class="cls-18" points="157.04 161.93 157.04 176.44 143.6 176.44 143.6 220.31 127.74 220.31 127.74 176.44 114.45 176.44 114.45 161.93 157.04 161.93"/><path class="cls-18" d="M177.19,187.16h6.29c1.52,0,2.67-.4,3.43-1.2,.76-.8,1.14-2.05,1.14-3.75,0-1.54-.39-2.75-1.18-3.63-.79-.88-1.92-1.32-3.39-1.32h-6.29v9.89Zm9.58,33.15l-9.5-20.95h-.07v20.95h-15.86v-58.38h23.58c4.1,0,7.6,.84,10.5,2.52,2.91,1.68,5.08,3.96,6.54,6.84,1.45,2.89,2.18,6.14,2.18,9.77,0,3.9-.94,7.37-2.82,10.39-1.88,3.02-4.59,5.2-8.11,6.51l11,22.35h-17.44Z"/><path class="cls-18" d="M241.15,200.32c1.72-2.34,2.57-5.48,2.57-9.44s-.86-7.19-2.57-9.52c-1.72-2.34-4.14-3.5-7.29-3.5s-5.65,1.17-7.36,3.5c-1.72,2.34-2.57,5.51-2.57,9.52s.86,7.11,2.57,9.44c1.72,2.34,4.17,3.5,7.36,3.5s5.57-1.17,7.29-3.5Zm-20.4,16.7c-3.98-2.58-7.14-6.16-9.47-10.72-2.33-4.56-3.5-9.7-3.5-15.42s1.17-10.86,3.5-15.42c2.33-4.56,5.49-8.12,9.47-10.68,3.98-2.56,8.35-3.83,13.11-3.83s9.12,1.28,13.08,3.83c3.95,2.56,7.08,6.12,9.4,10.68,2.31,4.56,3.47,9.7,3.47,15.42s-1.16,10.86-3.47,15.42c-2.31,4.56-5.46,8.14-9.43,10.72-3.98,2.59-8.33,3.88-13.04,3.88s-9.14-1.29-13.11-3.88Z"/><path class="cls-18" d="M270.34,215.98c-3.93-3.27-6.06-8.07-6.4-14.39h16.86c.24,3.35,1.52,5.03,3.86,5.03,.86,0,1.58-.23,2.18-.7,.6-.47,.89-1.2,.89-2.18,0-1.37-.64-2.49-1.93-3.34-1.29-.85-3.29-1.83-6-2.93-3.24-1.32-5.92-2.61-8.04-3.88-2.12-1.26-3.94-3.1-5.47-5.52-1.53-2.42-2.24-5.52-2.22-9.32s.85-7.02,2.54-9.69c1.69-2.67,4-4.69,6.93-6.06,2.93-1.37,6.23-2.06,9.9-2.06,6.19,0,11.11,1.65,14.76,4.95,3.64,3.3,5.56,7.94,5.75,13.94h-17.08c-.05-1.65-.41-2.83-1.07-3.55-.67-.71-1.48-1.07-2.43-1.07-.67,0-1.21,.26-1.64,.78-.43,.52-.64,1.25-.64,2.19,0,1.32,.63,2.41,1.89,3.26,1.26,.85,3.27,1.89,6.04,3.09,3.19,1.38,5.82,2.69,7.9,3.96,2.07,1.27,3.87,3.02,5.39,5.28,1.52,2.25,2.29,5.09,2.29,8.49s-.76,6.78-2.29,9.61c-1.53,2.83-3.74,5.04-6.65,6.64-2.91,1.6-6.36,2.39-10.36,2.39-6.05,0-11.04-1.64-14.97-4.91Z"/><rect class="cls-18" x="310.18" y="161.93" width="15.86" height="58.38"/><path class="cls-18" d="M361.77,197.72l-4.57-16.24-4.57,16.24h9.15Zm3.86,13.77h-16.87l-2.5,8.82h-16.65l18.51-58.38h18.29l18.44,58.38h-16.72l-2.5-8.82Z"/></g><text class="cls-13" transform="translate(19.6 219.83) scale(.87 1)"><tspan x="0" y="0">EXTROSIA</tspan></text></g><g><path class="cls-38" d="M38.93,175.96v7.17h15.72v13.77h-15.72v8.25h17.87v14.6H23.07v-58.38H56.8v14.6h-17.87Z"/><path class="cls-38" d="M95.03,219.75l-9.29-15.17-7.72,15.17h-18.08l16.65-30.1-17.36-28.28h18.79l8.93,14.6,7.43-14.6h18.08l-16.36,29.52,17.72,28.86h-18.79Z"/><path class="cls-38" d="M157.13,161.37v14.51h-13.43v43.87h-15.86v-43.87h-13.29v-14.51h42.59Z"/><path class="cls-38" d="M186.85,219.75l-9.5-20.95h-.07v20.95h-15.86v-58.38h23.58c4.1,0,7.6,.84,10.5,2.52,2.91,1.68,5.08,3.96,6.54,6.84,1.45,2.89,2.18,6.14,2.18,9.77,0,3.9-.94,7.37-2.82,10.39-1.88,3.02-4.59,5.2-8.11,6.51l11,22.35h-17.44Zm-9.58-33.15h6.29c1.52,0,2.67-.4,3.43-1.2,.76-.8,1.14-2.05,1.14-3.75,0-1.54-.39-2.75-1.18-3.63-.79-.88-1.92-1.32-3.39-1.32h-6.29v9.89Z"/><path class="cls-38" d="M220.83,216.45c-3.98-2.58-7.14-6.16-9.47-10.72-2.33-4.56-3.5-9.7-3.5-15.42s1.17-10.86,3.5-15.42c2.33-4.56,5.49-8.12,9.47-10.68,3.98-2.56,8.35-3.83,13.11-3.83s9.12,1.28,13.08,3.83c3.95,2.56,7.08,6.12,9.4,10.68,2.31,4.56,3.47,9.7,3.47,15.42s-1.16,10.86-3.47,15.42c-2.31,4.56-5.46,8.14-9.43,10.72-3.98,2.59-8.33,3.88-13.04,3.88s-9.14-1.29-13.11-3.88Zm20.4-16.7c1.72-2.34,2.57-5.48,2.57-9.44s-.86-7.19-2.57-9.52c-1.72-2.34-4.14-3.5-7.29-3.5s-5.65,1.17-7.36,3.5c-1.72,2.34-2.57,5.51-2.57,9.52s.86,7.11,2.57,9.44c1.72,2.34,4.17,3.5,7.36,3.5s5.57-1.17,7.29-3.5Z"/><path class="cls-38" d="M270.43,215.42c-3.93-3.27-6.06-8.07-6.4-14.39h16.86c.24,3.35,1.52,5.03,3.86,5.03,.86,0,1.58-.23,2.18-.7,.6-.47,.89-1.2,.89-2.18,0-1.37-.64-2.49-1.93-3.34-1.29-.85-3.29-1.83-6-2.93-3.24-1.32-5.92-2.61-8.04-3.88-2.12-1.26-3.94-3.1-5.47-5.52-1.53-2.42-2.26-5.52-2.22-9.32,0-3.79,.85-7.02,2.54-9.69,1.69-2.67,4-4.69,6.93-6.06,2.93-1.37,6.23-2.06,9.9-2.06,6.19,0,11.11,1.65,14.76,4.95,3.64,3.3,5.56,7.94,5.75,13.94h-17.08c-.05-1.65-.41-2.83-1.07-3.55-.67-.71-1.48-1.07-2.43-1.07-.67,0-1.21,.26-1.64,.78-.43,.52-.64,1.25-.64,2.19,0,1.32,.63,2.41,1.89,3.26,1.26,.85,3.27,1.88,6.04,3.09,3.19,1.37,5.82,2.69,7.9,3.96,2.07,1.26,3.87,3.02,5.39,5.28,1.52,2.25,2.29,5.09,2.29,8.49s-.76,6.78-2.29,9.61c-1.53,2.83-3.74,5.04-6.65,6.64-2.91,1.6-6.36,2.39-10.36,2.39-6.05,0-11.04-1.64-14.97-4.91Z"/><path class="cls-38" d="M326.13,161.37v58.38h-15.86v-58.38h15.86Z"/><path class="cls-38" d="M365.72,210.93h-16.87l-2.5,8.82h-16.65l18.51-58.38h18.29l18.44,58.38h-16.72l-2.5-8.82Zm-3.86-13.77l-4.57-16.24-4.57,16.24h9.15Z"/></g></g></svg>